<?xml version="1.0" encoding="utf-8" standalone="no"?>
<!DOCTYPE svg PUBLIC "-//W3C//DTD SVG 1.1//EN"
  "http://www.w3.org/Graphics/SVG/1.1/DTD/svg11.dtd">
<svg xmlns:xlink="http://www.w3.org/1999/xlink" width="568.8pt" height="568.8pt" viewBox="0 0 568.8 568.8" xmlns="http://www.w3.org/2000/svg" version="1.1">
 <metadata>
  <rdf:RDF xmlns:dc="http://purl.org/dc/elements/1.1/" xmlns:cc="http://creativecommons.org/ns#" xmlns:rdf="http://www.w3.org/1999/02/22-rdf-syntax-ns#">
   <cc:Work>
    <dc:type rdf:resource="http://purl.org/dc/dcmitype/StillImage"/>
    <dc:date>2026-01-21T11:05:43.751590</dc:date>
    <dc:format>image/svg+xml</dc:format>
    <dc:creator>
     <cc:Agent>
      <dc:title>Matplotlib v3.10.8, https://matplotlib.org/</dc:title>
     </cc:Agent>
    </dc:creator>
   </cc:Work>
  </rdf:RDF>
 </metadata>
 <defs>
  <style type="text/css">*{stroke-linejoin: round; stroke-linecap: butt}</style>
 </defs>
 <g id="figure_1">
  <g id="patch_1">
   <path d="M 0 568.8 
L 568.8 568.8 
L 568.8 0 
L 0 0 
z
" style="fill: #ffffff"/>
  </g>
  <g id="axes_1">
   <g id="patch_2">
    <path d="M 118.08 118.08 
L 228.96 118.08 
L 228.96 7.2 
L 118.08 7.2 
z
" clip-path="url(#pa3d3695cc9)" style="fill: #ffffff; stroke: #000000; stroke-width: 2; stroke-linejoin: miter"/>
   </g>
   <g id="patch_3">
    <path d="M 228.96 118.08 
L 339.84 118.08 
L 339.84 7.2 
L 228.96 7.2 
z
" clip-path="url(#pa3d3695cc9)" style="fill: #ffffff; stroke: #000000; stroke-width: 2; stroke-linejoin: miter"/>
   </g>
   <g id="patch_4">
    <path d="M 339.84 118.08 
L 450.72 118.08 
L 450.72 7.2 
L 339.84 7.2 
z
" clip-path="url(#pa3d3695cc9)" style="fill: #ffffff; stroke: #000000; stroke-width: 2; stroke-linejoin: miter"/>
   </g>
   <g id="patch_5">
    <path d="M 450.72 118.08 
L 561.6 118.08 
L 561.6 7.2 
L 450.72 7.2 
z
" clip-path="url(#pa3d3695cc9)" style="fill: #ffffff; stroke: #000000; stroke-width: 2; stroke-linejoin: miter"/>
   </g>
   <g id="patch_6">
    <path d="M 7.2 228.96 
L 118.08 228.96 
L 118.08 118.08 
L 7.2 118.08 
z
" clip-path="url(#pa3d3695cc9)" style="fill: #ffffff; stroke: #000000; stroke-width: 2; stroke-linejoin: miter"/>
   </g>
   <g id="patch_7">
    <path d="M 228.96 228.96 
L 339.84 228.96 
L 339.84 118.08 
L 228.96 118.08 
z
" clip-path="url(#pa3d3695cc9)" style="fill: #ffffff; stroke: #000000; stroke-width: 2; stroke-linejoin: miter"/>
   </g>
   <g id="patch_8">
    <path d="M 339.84 228.96 
L 450.72 228.96 
L 450.72 118.08 
L 339.84 118.08 
z
" clip-path="url(#pa3d3695cc9)" style="fill: #ffffff; stroke: #000000; stroke-width: 2; stroke-linejoin: miter"/>
   </g>
   <g id="patch_9">
    <path d="M 450.72 228.96 
L 561.6 228.96 
L 561.6 118.08 
L 450.72 118.08 
z
" clip-path="url(#pa3d3695cc9)" style="fill: #ffffff; stroke: #000000; stroke-width: 2; stroke-linejoin: miter"/>
   </g>
   <g id="patch_10">
    <path d="M 7.2 339.84 
L 118.08 339.84 
L 118.08 228.96 
L 7.2 228.96 
z
" clip-path="url(#pa3d3695cc9)" style="fill: #ffffff; stroke: #000000; stroke-width: 2; stroke-linejoin: miter"/>
   </g>
   <g id="patch_11">
    <path d="M 118.08 339.84 
L 228.96 339.84 
L 228.96 228.96 
L 118.08 228.96 
z
" clip-path="url(#pa3d3695cc9)" style="fill: #ffffff; stroke: #000000; stroke-width: 2; stroke-linejoin: miter"/>
   </g>
   <g id="patch_12">
    <path d="M 228.96 339.84 
L 339.84 339.84 
L 339.84 228.96 
L 228.96 228.96 
z
" clip-path="url(#pa3d3695cc9)" style="fill: #ffffff; stroke: #000000; stroke-width: 2; stroke-linejoin: miter"/>
   </g>
   <g id="patch_13">
    <path d="M 339.84 339.84 
L 450.72 339.84 
L 450.72 228.96 
L 339.84 228.96 
z
" clip-path="url(#pa3d3695cc9)" style="fill: #ffffff; stroke: #000000; stroke-width: 2; stroke-linejoin: miter"/>
   </g>
   <g id="patch_14">
    <path d="M 7.2 450.72 
L 118.08 450.72 
L 118.08 339.84 
L 7.2 339.84 
z
" clip-path="url(#pa3d3695cc9)" style="fill: #ffffff; stroke: #000000; stroke-width: 2; stroke-linejoin: miter"/>
   </g>
   <g id="patch_15">
    <path d="M 118.08 450.72 
L 228.96 450.72 
L 228.96 339.84 
L 118.08 339.84 
z
" clip-path="url(#pa3d3695cc9)" style="fill: #ffffff; stroke: #000000; stroke-width: 2; stroke-linejoin: miter"/>
   </g>
   <g id="patch_16">
    <path d="M 339.84 450.72 
L 450.72 450.72 
L 450.72 339.84 
L 339.84 339.84 
z
" clip-path="url(#pa3d3695cc9)" style="fill: #ffffff; stroke: #000000; stroke-width: 2; stroke-linejoin: miter"/>
   </g>
   <g id="patch_17">
    <path d="M 450.72 450.72 
L 561.6 450.72 
L 561.6 339.84 
L 450.72 339.84 
z
" clip-path="url(#pa3d3695cc9)" style="fill: #ffffff; stroke: #000000; stroke-width: 2; stroke-linejoin: miter"/>
   </g>
   <g id="patch_18">
    <path d="M 7.2 561.6 
L 118.08 561.6 
L 118.08 450.72 
L 7.2 450.72 
z
" clip-path="url(#pa3d3695cc9)" style="fill: #ffffff; stroke: #000000; stroke-width: 2; stroke-linejoin: miter"/>
   </g>
   <g id="patch_19">
    <path d="M 118.08 561.6 
L 228.96 561.6 
L 228.96 450.72 
L 118.08 450.72 
z
" clip-path="url(#pa3d3695cc9)" style="fill: #ffffff; stroke: #000000; stroke-width: 2; stroke-linejoin: miter"/>
   </g>
   <g id="patch_20">
    <path d="M 228.96 561.6 
L 339.84 561.6 
L 339.84 450.72 
L 228.96 450.72 
z
" clip-path="url(#pa3d3695cc9)" style="fill: #ffffff; stroke: #000000; stroke-width: 2; stroke-linejoin: miter"/>
   </g>
   <g id="patch_21">
    <path d="M 339.84 561.6 
L 450.72 561.6 
L 450.72 450.72 
L 339.84 450.72 
z
" clip-path="url(#pa3d3695cc9)" style="fill: #ffffff; stroke: #000000; stroke-width: 2; stroke-linejoin: miter"/>
   </g>
   <g id="patch_22">
    <path d="M 450.72 561.6 
L 561.6 561.6 
L 561.6 450.72 
L 450.72 450.72 
z
" clip-path="url(#pa3d3695cc9)" style="fill: #ffffff; stroke: #000000; stroke-width: 2; stroke-linejoin: miter"/>
   </g>
   <g id="patch_23">
    <path d="M 7.2 118.08 
L 118.08 118.08 
L 118.08 7.2 
L 7.2 7.2 
z
" clip-path="url(#pa3d3695cc9)" style="fill: #e3000b; stroke: #ffd700; stroke-width: 2; stroke-linejoin: miter"/>
   </g>
   <g id="patch_24">
    <path d="M 118.08 228.96 
L 228.96 228.96 
L 228.96 118.08 
L 118.08 118.08 
z
" clip-path="url(#pa3d3695cc9)" style="fill: #e3000b; stroke: #ffd700; stroke-width: 2; stroke-linejoin: miter"/>
   </g>
   <g id="patch_25">
    <path d="M 450.72 339.84 
L 561.6 339.84 
L 561.6 228.96 
L 450.72 228.96 
z
" clip-path="url(#pa3d3695cc9)" style="fill: #e3000b; stroke: #ffd700; stroke-width: 2; stroke-linejoin: miter"/>
   </g>
   <g id="patch_26">
    <path d="M 228.96 450.72 
L 339.84 450.72 
L 339.84 339.84 
L 228.96 339.84 
z
" clip-path="url(#pa3d3695cc9)" style="fill: #e3000b; stroke: #ffd700; stroke-width: 2; stroke-linejoin: miter"/>
   </g>
  </g>
 </g>
 <defs>
  <clipPath id="pa3d3695cc9">
   <rect x="7.2" y="7.2" width="554.4" height="554.4"/>
  </clipPath>
 </defs>
</svg>
