<?xml version="1.0" encoding="utf-8" standalone="no"?>
<!DOCTYPE svg PUBLIC "-//W3C//DTD SVG 1.1//EN"
  "http://www.w3.org/Graphics/SVG/1.1/DTD/svg11.dtd">
<svg xmlns:xlink="http://www.w3.org/1999/xlink" width="760.752pt" height="570.564pt" viewBox="0 0 760.752 570.564" xmlns="http://www.w3.org/2000/svg" version="1.1">
 <metadata>
  <rdf:RDF xmlns:dc="http://purl.org/dc/elements/1.1/" xmlns:cc="http://creativecommons.org/ns#" xmlns:rdf="http://www.w3.org/1999/02/22-rdf-syntax-ns#">
   <cc:Work>
    <dc:type rdf:resource="http://purl.org/dc/dcmitype/StillImage"/>
    <dc:date>2026-01-21T10:52:05.744924</dc:date>
    <dc:format>image/svg+xml</dc:format>
    <dc:creator>
     <cc:Agent>
      <dc:title>Matplotlib v3.10.8, https://matplotlib.org/</dc:title>
     </cc:Agent>
    </dc:creator>
   </cc:Work>
  </rdf:RDF>
 </metadata>
 <defs>
  <style type="text/css">*{stroke-linejoin: round; stroke-linecap: butt}</style>
 </defs>
 <g id="figure_1">
  <g id="patch_1">
   <path d="M 0 570.564 
L 760.752 570.564 
L 760.752 0 
L 0 0 
z
" style="fill: #ffffff"/>
  </g>
  <g id="axes_1">
   <g id="patch_2">
    <path d="M 97.00875 245.462625 
L 382.415375 245.462625 
L 382.415375 10.8 
L 97.00875 10.8 
z
" style="fill: #ffffff"/>
   </g>
   <g id="matplotlib.axis_1">
    <g id="xtick_1">
     <g id="line2d_1">
      <path d="M 97.00875 245.462625 
L 97.00875 10.8 
" clip-path="url(#p96e99b7395)" style="fill: none; stroke-dasharray: 3.7,1.6; stroke-dashoffset: 0; stroke: #cccccc"/>
     </g>
     <g id="text_1">
      <!-- 0% -->
      <g style="fill: #262626" transform="translate(89.059531 262.836219) scale(0.11 -0.11)">
       <defs>
        <path id="ArialMT-30" d="M 266 2259 
Q 266 3072 433 3567 
Q 600 4063 929 4331 
Q 1259 4600 1759 4600 
Q 2128 4600 2406 4451 
Q 2684 4303 2865 4023 
Q 3047 3744 3150 3342 
Q 3253 2941 3253 2259 
Q 3253 1453 3087 958 
Q 2922 463 2592 192 
Q 2263 -78 1759 -78 
Q 1097 -78 719 397 
Q 266 969 266 2259 
z
M 844 2259 
Q 844 1131 1108 757 
Q 1372 384 1759 384 
Q 2147 384 2411 759 
Q 2675 1134 2675 2259 
Q 2675 3391 2411 3762 
Q 2147 4134 1753 4134 
Q 1366 4134 1134 3806 
Q 844 3388 844 2259 
z
" transform="scale(0.015625)"/>
        <path id="ArialMT-25" d="M 372 3481 
Q 372 3972 619 4315 
Q 866 4659 1334 4659 
Q 1766 4659 2048 4351 
Q 2331 4044 2331 3447 
Q 2331 2866 2045 2552 
Q 1759 2238 1341 2238 
Q 925 2238 648 2547 
Q 372 2856 372 3481 
z
M 1350 4272 
Q 1141 4272 1002 4090 
Q 863 3909 863 3425 
Q 863 2984 1003 2804 
Q 1144 2625 1350 2625 
Q 1563 2625 1702 2806 
Q 1841 2988 1841 3469 
Q 1841 3913 1700 4092 
Q 1559 4272 1350 4272 
z
M 1353 -169 
L 3859 4659 
L 4316 4659 
L 1819 -169 
L 1353 -169 
z
M 3334 1075 
Q 3334 1569 3581 1911 
Q 3828 2253 4300 2253 
Q 4731 2253 5014 1945 
Q 5297 1638 5297 1041 
Q 5297 459 5011 145 
Q 4725 -169 4303 -169 
Q 3888 -169 3611 142 
Q 3334 453 3334 1075 
z
M 4316 1866 
Q 4103 1866 3964 1684 
Q 3825 1503 3825 1019 
Q 3825 581 3965 400 
Q 4106 219 4313 219 
Q 4528 219 4667 400 
Q 4806 581 4806 1063 
Q 4806 1506 4665 1686 
Q 4525 1866 4316 1866 
z
" transform="scale(0.015625)"/>
       </defs>
       <use xlink:href="#ArialMT-30"/>
       <use xlink:href="#ArialMT-25" transform="translate(55.615234 0)"/>
      </g>
     </g>
    </g>
    <g id="xtick_2">
     <g id="line2d_2">
      <path d="M 134.609633 245.462625 
L 134.609633 10.8 
" clip-path="url(#p96e99b7395)" style="fill: none; stroke-dasharray: 3.7,1.6; stroke-dashoffset: 0; stroke: #cccccc"/>
     </g>
     <g id="text_2">
      <!-- 10% -->
      <g style="fill: #262626" transform="translate(123.601898 262.836219) scale(0.11 -0.11)">
       <defs>
        <path id="ArialMT-31" d="M 2384 0 
L 1822 0 
L 1822 3584 
Q 1619 3391 1289 3197 
Q 959 3003 697 2906 
L 697 3450 
Q 1169 3672 1522 3987 
Q 1875 4303 2022 4600 
L 2384 4600 
L 2384 0 
z
" transform="scale(0.015625)"/>
       </defs>
       <use xlink:href="#ArialMT-31"/>
       <use xlink:href="#ArialMT-30" transform="translate(55.615234 0)"/>
       <use xlink:href="#ArialMT-25" transform="translate(111.230469 0)"/>
      </g>
     </g>
    </g>
    <g id="xtick_3">
     <g id="line2d_3">
      <path d="M 172.210515 245.462625 
L 172.210515 10.8 
" clip-path="url(#p96e99b7395)" style="fill: none; stroke-dasharray: 3.7,1.6; stroke-dashoffset: 0; stroke: #cccccc"/>
     </g>
     <g id="text_3">
      <!-- 20% -->
      <g style="fill: #262626" transform="translate(161.202781 262.836219) scale(0.11 -0.11)">
       <defs>
        <path id="ArialMT-32" d="M 3222 541 
L 3222 0 
L 194 0 
Q 188 203 259 391 
Q 375 700 629 1000 
Q 884 1300 1366 1694 
Q 2113 2306 2375 2664 
Q 2638 3022 2638 3341 
Q 2638 3675 2398 3904 
Q 2159 4134 1775 4134 
Q 1369 4134 1125 3890 
Q 881 3647 878 3216 
L 300 3275 
Q 359 3922 746 4261 
Q 1134 4600 1788 4600 
Q 2447 4600 2831 4234 
Q 3216 3869 3216 3328 
Q 3216 3053 3103 2787 
Q 2991 2522 2730 2228 
Q 2469 1934 1863 1422 
Q 1356 997 1212 845 
Q 1069 694 975 541 
L 3222 541 
z
" transform="scale(0.015625)"/>
       </defs>
       <use xlink:href="#ArialMT-32"/>
       <use xlink:href="#ArialMT-30" transform="translate(55.615234 0)"/>
       <use xlink:href="#ArialMT-25" transform="translate(111.230469 0)"/>
      </g>
     </g>
    </g>
    <g id="xtick_4">
     <g id="line2d_4">
      <path d="M 209.811398 245.462625 
L 209.811398 10.8 
" clip-path="url(#p96e99b7395)" style="fill: none; stroke-dasharray: 3.7,1.6; stroke-dashoffset: 0; stroke: #cccccc"/>
     </g>
     <g id="text_4">
      <!-- 30% -->
      <g style="fill: #262626" transform="translate(198.803663 262.836219) scale(0.11 -0.11)">
       <defs>
        <path id="ArialMT-33" d="M 269 1209 
L 831 1284 
Q 928 806 1161 595 
Q 1394 384 1728 384 
Q 2125 384 2398 659 
Q 2672 934 2672 1341 
Q 2672 1728 2419 1979 
Q 2166 2231 1775 2231 
Q 1616 2231 1378 2169 
L 1441 2663 
Q 1497 2656 1531 2656 
Q 1891 2656 2178 2843 
Q 2466 3031 2466 3422 
Q 2466 3731 2256 3934 
Q 2047 4138 1716 4138 
Q 1388 4138 1169 3931 
Q 950 3725 888 3313 
L 325 3413 
Q 428 3978 793 4289 
Q 1159 4600 1703 4600 
Q 2078 4600 2393 4439 
Q 2709 4278 2876 4000 
Q 3044 3722 3044 3409 
Q 3044 3113 2884 2869 
Q 2725 2625 2413 2481 
Q 2819 2388 3044 2092 
Q 3269 1797 3269 1353 
Q 3269 753 2831 336 
Q 2394 -81 1725 -81 
Q 1122 -81 723 278 
Q 325 638 269 1209 
z
" transform="scale(0.015625)"/>
       </defs>
       <use xlink:href="#ArialMT-33"/>
       <use xlink:href="#ArialMT-30" transform="translate(55.615234 0)"/>
       <use xlink:href="#ArialMT-25" transform="translate(111.230469 0)"/>
      </g>
     </g>
    </g>
    <g id="xtick_5">
     <g id="line2d_5">
      <path d="M 247.41228 245.462625 
L 247.41228 10.8 
" clip-path="url(#p96e99b7395)" style="fill: none; stroke-dasharray: 3.7,1.6; stroke-dashoffset: 0; stroke: #cccccc"/>
     </g>
     <g id="text_5">
      <!-- 40% -->
      <g style="fill: #262626" transform="translate(236.404546 262.836219) scale(0.11 -0.11)">
       <defs>
        <path id="ArialMT-34" d="M 2069 0 
L 2069 1097 
L 81 1097 
L 81 1613 
L 2172 4581 
L 2631 4581 
L 2631 1613 
L 3250 1613 
L 3250 1097 
L 2631 1097 
L 2631 0 
L 2069 0 
z
M 2069 1613 
L 2069 3678 
L 634 1613 
L 2069 1613 
z
" transform="scale(0.015625)"/>
       </defs>
       <use xlink:href="#ArialMT-34"/>
       <use xlink:href="#ArialMT-30" transform="translate(55.615234 0)"/>
       <use xlink:href="#ArialMT-25" transform="translate(111.230469 0)"/>
      </g>
     </g>
    </g>
    <g id="xtick_6">
     <g id="line2d_6">
      <path d="M 285.013163 245.462625 
L 285.013163 10.8 
" clip-path="url(#p96e99b7395)" style="fill: none; stroke-dasharray: 3.7,1.6; stroke-dashoffset: 0; stroke: #cccccc"/>
     </g>
     <g id="text_6">
      <!-- 50% -->
      <g style="fill: #262626" transform="translate(274.005428 262.836219) scale(0.11 -0.11)">
       <defs>
        <path id="ArialMT-35" d="M 266 1200 
L 856 1250 
Q 922 819 1161 601 
Q 1400 384 1738 384 
Q 2144 384 2425 690 
Q 2706 997 2706 1503 
Q 2706 1984 2436 2262 
Q 2166 2541 1728 2541 
Q 1456 2541 1237 2417 
Q 1019 2294 894 2097 
L 366 2166 
L 809 4519 
L 3088 4519 
L 3088 3981 
L 1259 3981 
L 1013 2750 
Q 1425 3038 1878 3038 
Q 2478 3038 2890 2622 
Q 3303 2206 3303 1553 
Q 3303 931 2941 478 
Q 2500 -78 1738 -78 
Q 1113 -78 717 272 
Q 322 622 266 1200 
z
" transform="scale(0.015625)"/>
       </defs>
       <use xlink:href="#ArialMT-35"/>
       <use xlink:href="#ArialMT-30" transform="translate(55.615234 0)"/>
       <use xlink:href="#ArialMT-25" transform="translate(111.230469 0)"/>
      </g>
     </g>
    </g>
    <g id="xtick_7">
     <g id="line2d_7">
      <path d="M 322.614045 245.462625 
L 322.614045 10.8 
" clip-path="url(#p96e99b7395)" style="fill: none; stroke-dasharray: 3.7,1.6; stroke-dashoffset: 0; stroke: #cccccc"/>
     </g>
     <g id="text_7">
      <!-- 60% -->
      <g style="fill: #262626" transform="translate(311.606311 262.836219) scale(0.11 -0.11)">
       <defs>
        <path id="ArialMT-36" d="M 3184 3459 
L 2625 3416 
Q 2550 3747 2413 3897 
Q 2184 4138 1850 4138 
Q 1581 4138 1378 3988 
Q 1113 3794 959 3422 
Q 806 3050 800 2363 
Q 1003 2672 1297 2822 
Q 1591 2972 1913 2972 
Q 2475 2972 2870 2558 
Q 3266 2144 3266 1488 
Q 3266 1056 3080 686 
Q 2894 316 2569 119 
Q 2244 -78 1831 -78 
Q 1128 -78 684 439 
Q 241 956 241 2144 
Q 241 3472 731 4075 
Q 1159 4600 1884 4600 
Q 2425 4600 2770 4297 
Q 3116 3994 3184 3459 
z
M 888 1484 
Q 888 1194 1011 928 
Q 1134 663 1356 523 
Q 1578 384 1822 384 
Q 2178 384 2434 671 
Q 2691 959 2691 1453 
Q 2691 1928 2437 2201 
Q 2184 2475 1800 2475 
Q 1419 2475 1153 2201 
Q 888 1928 888 1484 
z
" transform="scale(0.015625)"/>
       </defs>
       <use xlink:href="#ArialMT-36"/>
       <use xlink:href="#ArialMT-30" transform="translate(55.615234 0)"/>
       <use xlink:href="#ArialMT-25" transform="translate(111.230469 0)"/>
      </g>
     </g>
    </g>
    <g id="xtick_8">
     <g id="line2d_8">
      <path d="M 360.214928 245.462625 
L 360.214928 10.8 
" clip-path="url(#p96e99b7395)" style="fill: none; stroke-dasharray: 3.7,1.6; stroke-dashoffset: 0; stroke: #cccccc"/>
     </g>
     <g id="text_8">
      <!-- 70% -->
      <g style="fill: #262626" transform="translate(349.207193 262.836219) scale(0.11 -0.11)">
       <defs>
        <path id="ArialMT-37" d="M 303 3981 
L 303 4522 
L 3269 4522 
L 3269 4084 
Q 2831 3619 2401 2847 
Q 1972 2075 1738 1259 
Q 1569 684 1522 0 
L 944 0 
Q 953 541 1156 1306 
Q 1359 2072 1739 2783 
Q 2119 3494 2547 3981 
L 303 3981 
z
" transform="scale(0.015625)"/>
       </defs>
       <use xlink:href="#ArialMT-37"/>
       <use xlink:href="#ArialMT-30" transform="translate(55.615234 0)"/>
       <use xlink:href="#ArialMT-25" transform="translate(111.230469 0)"/>
      </g>
     </g>
    </g>
    <g id="text_9">
     <!-- Rescue Rate -->
     <g style="fill: #262626" transform="translate(203.697062 277.611844) scale(0.12 -0.12)">
      <defs>
       <path id="Arial-BoldMT-52" d="M 469 0 
L 469 4581 
L 2416 4581 
Q 3150 4581 3483 4457 
Q 3816 4334 4016 4018 
Q 4216 3703 4216 3297 
Q 4216 2781 3912 2445 
Q 3609 2109 3006 2022 
Q 3306 1847 3501 1637 
Q 3697 1428 4028 894 
L 4588 0 
L 3481 0 
L 2813 997 
Q 2456 1531 2325 1670 
Q 2194 1809 2047 1861 
Q 1900 1913 1581 1913 
L 1394 1913 
L 1394 0 
L 469 0 
z
M 1394 2644 
L 2078 2644 
Q 2744 2644 2909 2700 
Q 3075 2756 3169 2893 
Q 3263 3031 3263 3238 
Q 3263 3469 3139 3611 
Q 3016 3753 2791 3791 
Q 2678 3806 2116 3806 
L 1394 3806 
L 1394 2644 
z
" transform="scale(0.015625)"/>
       <path id="Arial-BoldMT-65" d="M 2381 1056 
L 3256 909 
Q 3088 428 2723 176 
Q 2359 -75 1813 -75 
Q 947 -75 531 491 
Q 203 944 203 1634 
Q 203 2459 634 2926 
Q 1066 3394 1725 3394 
Q 2466 3394 2894 2905 
Q 3322 2416 3303 1406 
L 1103 1406 
Q 1113 1016 1316 798 
Q 1519 581 1822 581 
Q 2028 581 2168 693 
Q 2309 806 2381 1056 
z
M 2431 1944 
Q 2422 2325 2234 2523 
Q 2047 2722 1778 2722 
Q 1491 2722 1303 2513 
Q 1116 2303 1119 1944 
L 2431 1944 
z
" transform="scale(0.015625)"/>
       <path id="Arial-BoldMT-73" d="M 150 947 
L 1031 1081 
Q 1088 825 1259 692 
Q 1431 559 1741 559 
Q 2081 559 2253 684 
Q 2369 772 2369 919 
Q 2369 1019 2306 1084 
Q 2241 1147 2013 1200 
Q 950 1434 666 1628 
Q 272 1897 272 2375 
Q 272 2806 612 3100 
Q 953 3394 1669 3394 
Q 2350 3394 2681 3172 
Q 3013 2950 3138 2516 
L 2309 2363 
Q 2256 2556 2107 2659 
Q 1959 2763 1684 2763 
Q 1338 2763 1188 2666 
Q 1088 2597 1088 2488 
Q 1088 2394 1175 2328 
Q 1294 2241 1995 2081 
Q 2697 1922 2975 1691 
Q 3250 1456 3250 1038 
Q 3250 581 2869 253 
Q 2488 -75 1741 -75 
Q 1063 -75 667 200 
Q 272 475 150 947 
z
" transform="scale(0.015625)"/>
       <path id="Arial-BoldMT-63" d="M 3353 2338 
L 2488 2181 
Q 2444 2441 2289 2572 
Q 2134 2703 1888 2703 
Q 1559 2703 1364 2476 
Q 1169 2250 1169 1719 
Q 1169 1128 1367 884 
Q 1566 641 1900 641 
Q 2150 641 2309 783 
Q 2469 925 2534 1272 
L 3397 1125 
Q 3263 531 2881 228 
Q 2500 -75 1859 -75 
Q 1131 -75 698 384 
Q 266 844 266 1656 
Q 266 2478 700 2936 
Q 1134 3394 1875 3394 
Q 2481 3394 2839 3133 
Q 3197 2872 3353 2338 
z
" transform="scale(0.015625)"/>
       <path id="Arial-BoldMT-75" d="M 2644 0 
L 2644 497 
Q 2463 231 2167 78 
Q 1872 -75 1544 -75 
Q 1209 -75 943 72 
Q 678 219 559 484 
Q 441 750 441 1219 
L 441 3319 
L 1319 3319 
L 1319 1794 
Q 1319 1094 1367 936 
Q 1416 778 1544 686 
Q 1672 594 1869 594 
Q 2094 594 2272 717 
Q 2450 841 2515 1023 
Q 2581 1206 2581 1919 
L 2581 3319 
L 3459 3319 
L 3459 0 
L 2644 0 
z
" transform="scale(0.015625)"/>
       <path id="Arial-BoldMT-20" transform="scale(0.015625)"/>
       <path id="Arial-BoldMT-61" d="M 1116 2306 
L 319 2450 
Q 453 2931 781 3162 
Q 1109 3394 1756 3394 
Q 2344 3394 2631 3255 
Q 2919 3116 3036 2902 
Q 3153 2688 3153 2116 
L 3144 1091 
Q 3144 653 3186 445 
Q 3228 238 3344 0 
L 2475 0 
Q 2441 88 2391 259 
Q 2369 338 2359 363 
Q 2134 144 1878 34 
Q 1622 -75 1331 -75 
Q 819 -75 523 203 
Q 228 481 228 906 
Q 228 1188 362 1408 
Q 497 1628 739 1745 
Q 981 1863 1438 1950 
Q 2053 2066 2291 2166 
L 2291 2253 
Q 2291 2506 2166 2614 
Q 2041 2722 1694 2722 
Q 1459 2722 1328 2630 
Q 1197 2538 1116 2306 
z
M 2291 1594 
Q 2122 1538 1756 1459 
Q 1391 1381 1278 1306 
Q 1106 1184 1106 997 
Q 1106 813 1243 678 
Q 1381 544 1594 544 
Q 1831 544 2047 700 
Q 2206 819 2256 991 
Q 2291 1103 2291 1419 
L 2291 1594 
z
" transform="scale(0.015625)"/>
       <path id="Arial-BoldMT-74" d="M 1981 3319 
L 1981 2619 
L 1381 2619 
L 1381 1281 
Q 1381 875 1398 808 
Q 1416 741 1477 697 
Q 1538 653 1625 653 
Q 1747 653 1978 738 
L 2053 56 
Q 1747 -75 1359 -75 
Q 1122 -75 931 4 
Q 741 84 652 211 
Q 563 338 528 553 
Q 500 706 500 1172 
L 500 2619 
L 97 2619 
L 97 3319 
L 500 3319 
L 500 3978 
L 1381 4491 
L 1381 3319 
L 1981 3319 
z
" transform="scale(0.015625)"/>
      </defs>
      <use xlink:href="#Arial-BoldMT-52"/>
      <use xlink:href="#Arial-BoldMT-65" transform="translate(72.216797 0)"/>
      <use xlink:href="#Arial-BoldMT-73" transform="translate(127.832031 0)"/>
      <use xlink:href="#Arial-BoldMT-63" transform="translate(183.447266 0)"/>
      <use xlink:href="#Arial-BoldMT-75" transform="translate(239.0625 0)"/>
      <use xlink:href="#Arial-BoldMT-65" transform="translate(300.146484 0)"/>
      <use xlink:href="#Arial-BoldMT-20" transform="translate(355.761719 0)"/>
      <use xlink:href="#Arial-BoldMT-52" transform="translate(383.544922 0)"/>
      <use xlink:href="#Arial-BoldMT-61" transform="translate(455.761719 0)"/>
      <use xlink:href="#Arial-BoldMT-74" transform="translate(511.376953 0)"/>
      <use xlink:href="#Arial-BoldMT-65" transform="translate(544.677734 0)"/>
     </g>
    </g>
   </g>
   <g id="matplotlib.axis_2">
    <g id="ytick_1">
     <g id="text_10">
      <!-- greedy -->
      <g style="fill: #262626" transform="translate(53.877969 34.292016) scale(0.11 -0.11)">
       <defs>
        <path id="ArialMT-67" d="M 319 -275 
L 866 -356 
Q 900 -609 1056 -725 
Q 1266 -881 1628 -881 
Q 2019 -881 2231 -725 
Q 2444 -569 2519 -288 
Q 2563 -116 2559 434 
Q 2191 0 1641 0 
Q 956 0 581 494 
Q 206 988 206 1678 
Q 206 2153 378 2554 
Q 550 2956 876 3175 
Q 1203 3394 1644 3394 
Q 2231 3394 2613 2919 
L 2613 3319 
L 3131 3319 
L 3131 450 
Q 3131 -325 2973 -648 
Q 2816 -972 2473 -1159 
Q 2131 -1347 1631 -1347 
Q 1038 -1347 672 -1080 
Q 306 -813 319 -275 
z
M 784 1719 
Q 784 1066 1043 766 
Q 1303 466 1694 466 
Q 2081 466 2343 764 
Q 2606 1063 2606 1700 
Q 2606 2309 2336 2618 
Q 2066 2928 1684 2928 
Q 1309 2928 1046 2623 
Q 784 2319 784 1719 
z
" transform="scale(0.015625)"/>
        <path id="ArialMT-72" d="M 416 0 
L 416 3319 
L 922 3319 
L 922 2816 
Q 1116 3169 1280 3281 
Q 1444 3394 1641 3394 
Q 1925 3394 2219 3213 
L 2025 2691 
Q 1819 2813 1613 2813 
Q 1428 2813 1281 2702 
Q 1134 2591 1072 2394 
Q 978 2094 978 1738 
L 978 0 
L 416 0 
z
" transform="scale(0.015625)"/>
        <path id="ArialMT-65" d="M 2694 1069 
L 3275 997 
Q 3138 488 2766 206 
Q 2394 -75 1816 -75 
Q 1088 -75 661 373 
Q 234 822 234 1631 
Q 234 2469 665 2931 
Q 1097 3394 1784 3394 
Q 2450 3394 2872 2941 
Q 3294 2488 3294 1666 
Q 3294 1616 3291 1516 
L 816 1516 
Q 847 969 1125 678 
Q 1403 388 1819 388 
Q 2128 388 2347 550 
Q 2566 713 2694 1069 
z
M 847 1978 
L 2700 1978 
Q 2663 2397 2488 2606 
Q 2219 2931 1791 2931 
Q 1403 2931 1139 2672 
Q 875 2413 847 1978 
z
" transform="scale(0.015625)"/>
        <path id="ArialMT-64" d="M 2575 0 
L 2575 419 
Q 2259 -75 1647 -75 
Q 1250 -75 917 144 
Q 584 363 401 755 
Q 219 1147 219 1656 
Q 219 2153 384 2558 
Q 550 2963 881 3178 
Q 1213 3394 1622 3394 
Q 1922 3394 2156 3267 
Q 2391 3141 2538 2938 
L 2538 4581 
L 3097 4581 
L 3097 0 
L 2575 0 
z
M 797 1656 
Q 797 1019 1065 703 
Q 1334 388 1700 388 
Q 2069 388 2326 689 
Q 2584 991 2584 1609 
Q 2584 2291 2321 2609 
Q 2059 2928 1675 2928 
Q 1300 2928 1048 2622 
Q 797 2316 797 1656 
z
" transform="scale(0.015625)"/>
        <path id="ArialMT-79" d="M 397 -1278 
L 334 -750 
Q 519 -800 656 -800 
Q 844 -800 956 -737 
Q 1069 -675 1141 -563 
Q 1194 -478 1313 -144 
Q 1328 -97 1363 -6 
L 103 3319 
L 709 3319 
L 1400 1397 
Q 1534 1031 1641 628 
Q 1738 1016 1872 1384 
L 2581 3319 
L 3144 3319 
L 1881 -56 
Q 1678 -603 1566 -809 
Q 1416 -1088 1222 -1217 
Q 1028 -1347 759 -1347 
Q 597 -1347 397 -1278 
z
" transform="scale(0.015625)"/>
       </defs>
       <use xlink:href="#ArialMT-67"/>
       <use xlink:href="#ArialMT-72" transform="translate(55.615234 0)"/>
       <use xlink:href="#ArialMT-65" transform="translate(88.916016 0)"/>
       <use xlink:href="#ArialMT-65" transform="translate(144.53125 0)"/>
       <use xlink:href="#ArialMT-64" transform="translate(200.146484 0)"/>
       <use xlink:href="#ArialMT-79" transform="translate(255.761719 0)"/>
      </g>
     </g>
    </g>
    <g id="ytick_2">
     <g id="text_11">
      <!-- rollout -->
      <g style="fill: #262626" transform="translate(57.550938 73.402453) scale(0.11 -0.11)">
       <defs>
        <path id="ArialMT-6f" d="M 213 1659 
Q 213 2581 725 3025 
Q 1153 3394 1769 3394 
Q 2453 3394 2887 2945 
Q 3322 2497 3322 1706 
Q 3322 1066 3130 698 
Q 2938 331 2570 128 
Q 2203 -75 1769 -75 
Q 1072 -75 642 372 
Q 213 819 213 1659 
z
M 791 1659 
Q 791 1022 1069 705 
Q 1347 388 1769 388 
Q 2188 388 2466 706 
Q 2744 1025 2744 1678 
Q 2744 2294 2464 2611 
Q 2184 2928 1769 2928 
Q 1347 2928 1069 2612 
Q 791 2297 791 1659 
z
" transform="scale(0.015625)"/>
        <path id="ArialMT-6c" d="M 409 0 
L 409 4581 
L 972 4581 
L 972 0 
L 409 0 
z
" transform="scale(0.015625)"/>
        <path id="ArialMT-75" d="M 2597 0 
L 2597 488 
Q 2209 -75 1544 -75 
Q 1250 -75 995 37 
Q 741 150 617 320 
Q 494 491 444 738 
Q 409 903 409 1263 
L 409 3319 
L 972 3319 
L 972 1478 
Q 972 1038 1006 884 
Q 1059 663 1231 536 
Q 1403 409 1656 409 
Q 1909 409 2131 539 
Q 2353 669 2445 892 
Q 2538 1116 2538 1541 
L 2538 3319 
L 3100 3319 
L 3100 0 
L 2597 0 
z
" transform="scale(0.015625)"/>
        <path id="ArialMT-74" d="M 1650 503 
L 1731 6 
Q 1494 -44 1306 -44 
Q 1000 -44 831 53 
Q 663 150 594 308 
Q 525 466 525 972 
L 525 2881 
L 113 2881 
L 113 3319 
L 525 3319 
L 525 4141 
L 1084 4478 
L 1084 3319 
L 1650 3319 
L 1650 2881 
L 1084 2881 
L 1084 941 
Q 1084 700 1114 631 
Q 1144 563 1211 522 
Q 1278 481 1403 481 
Q 1497 481 1650 503 
z
" transform="scale(0.015625)"/>
       </defs>
       <use xlink:href="#ArialMT-72"/>
       <use xlink:href="#ArialMT-6f" transform="translate(33.300781 0)"/>
       <use xlink:href="#ArialMT-6c" transform="translate(88.916016 0)"/>
       <use xlink:href="#ArialMT-6c" transform="translate(111.132812 0)"/>
       <use xlink:href="#ArialMT-6f" transform="translate(133.349609 0)"/>
       <use xlink:href="#ArialMT-75" transform="translate(188.964844 0)"/>
       <use xlink:href="#ArialMT-74" transform="translate(244.580078 0)"/>
      </g>
     </g>
    </g>
    <g id="ytick_3">
     <g id="text_12">
      <!-- risk-averse -->
      <g style="fill: #262626" transform="translate(33.725625 107.482969) scale(0.11 -0.11)">
       <defs>
        <path id="ArialMT-69" d="M 425 3934 
L 425 4581 
L 988 4581 
L 988 3934 
L 425 3934 
z
M 425 0 
L 425 3319 
L 988 3319 
L 988 0 
L 425 0 
z
" transform="scale(0.015625)"/>
        <path id="ArialMT-73" d="M 197 991 
L 753 1078 
Q 800 744 1014 566 
Q 1228 388 1613 388 
Q 2000 388 2187 545 
Q 2375 703 2375 916 
Q 2375 1106 2209 1216 
Q 2094 1291 1634 1406 
Q 1016 1563 777 1677 
Q 538 1791 414 1992 
Q 291 2194 291 2438 
Q 291 2659 392 2848 
Q 494 3038 669 3163 
Q 800 3259 1026 3326 
Q 1253 3394 1513 3394 
Q 1903 3394 2198 3281 
Q 2494 3169 2634 2976 
Q 2775 2784 2828 2463 
L 2278 2388 
Q 2241 2644 2061 2787 
Q 1881 2931 1553 2931 
Q 1166 2931 1000 2803 
Q 834 2675 834 2503 
Q 834 2394 903 2306 
Q 972 2216 1119 2156 
Q 1203 2125 1616 2013 
Q 2213 1853 2448 1751 
Q 2684 1650 2818 1456 
Q 2953 1263 2953 975 
Q 2953 694 2789 445 
Q 2625 197 2315 61 
Q 2006 -75 1616 -75 
Q 969 -75 630 194 
Q 291 463 197 991 
z
" transform="scale(0.015625)"/>
        <path id="ArialMT-6b" d="M 425 0 
L 425 4581 
L 988 4581 
L 988 1969 
L 2319 3319 
L 3047 3319 
L 1778 2088 
L 3175 0 
L 2481 0 
L 1384 1697 
L 988 1316 
L 988 0 
L 425 0 
z
" transform="scale(0.015625)"/>
        <path id="ArialMT-2d" d="M 203 1375 
L 203 1941 
L 1931 1941 
L 1931 1375 
L 203 1375 
z
" transform="scale(0.015625)"/>
        <path id="ArialMT-61" d="M 2588 409 
Q 2275 144 1986 34 
Q 1697 -75 1366 -75 
Q 819 -75 525 192 
Q 231 459 231 875 
Q 231 1119 342 1320 
Q 453 1522 633 1644 
Q 813 1766 1038 1828 
Q 1203 1872 1538 1913 
Q 2219 1994 2541 2106 
Q 2544 2222 2544 2253 
Q 2544 2597 2384 2738 
Q 2169 2928 1744 2928 
Q 1347 2928 1158 2789 
Q 969 2650 878 2297 
L 328 2372 
Q 403 2725 575 2942 
Q 747 3159 1072 3276 
Q 1397 3394 1825 3394 
Q 2250 3394 2515 3294 
Q 2781 3194 2906 3042 
Q 3031 2891 3081 2659 
Q 3109 2516 3109 2141 
L 3109 1391 
Q 3109 606 3145 398 
Q 3181 191 3288 0 
L 2700 0 
Q 2613 175 2588 409 
z
M 2541 1666 
Q 2234 1541 1622 1453 
Q 1275 1403 1131 1340 
Q 988 1278 909 1158 
Q 831 1038 831 891 
Q 831 666 1001 516 
Q 1172 366 1500 366 
Q 1825 366 2078 508 
Q 2331 650 2450 897 
Q 2541 1088 2541 1459 
L 2541 1666 
z
" transform="scale(0.015625)"/>
        <path id="ArialMT-76" d="M 1344 0 
L 81 3319 
L 675 3319 
L 1388 1331 
Q 1503 1009 1600 663 
Q 1675 925 1809 1294 
L 2547 3319 
L 3125 3319 
L 1869 0 
L 1344 0 
z
" transform="scale(0.015625)"/>
       </defs>
       <use xlink:href="#ArialMT-72"/>
       <use xlink:href="#ArialMT-69" transform="translate(33.300781 0)"/>
       <use xlink:href="#ArialMT-73" transform="translate(55.517578 0)"/>
       <use xlink:href="#ArialMT-6b" transform="translate(105.517578 0)"/>
       <use xlink:href="#ArialMT-2d" transform="translate(155.517578 0)"/>
       <use xlink:href="#ArialMT-61" transform="translate(188.818359 0)"/>
       <use xlink:href="#ArialMT-76" transform="translate(244.433594 0)"/>
       <use xlink:href="#ArialMT-65" transform="translate(294.433594 0)"/>
       <use xlink:href="#ArialMT-72" transform="translate(350.048828 0)"/>
       <use xlink:href="#ArialMT-73" transform="translate(383.349609 0)"/>
       <use xlink:href="#ArialMT-65" transform="translate(433.349609 0)"/>
      </g>
      <!-- greedy -->
      <g style="fill: #262626" transform="translate(53.877969 119.117531) scale(0.11 -0.11)">
       <use xlink:href="#ArialMT-67"/>
       <use xlink:href="#ArialMT-72" transform="translate(55.615234 0)"/>
       <use xlink:href="#ArialMT-65" transform="translate(88.916016 0)"/>
       <use xlink:href="#ArialMT-65" transform="translate(144.53125 0)"/>
       <use xlink:href="#ArialMT-64" transform="translate(200.146484 0)"/>
       <use xlink:href="#ArialMT-79" transform="translate(255.761719 0)"/>
      </g>
     </g>
    </g>
    <g id="ytick_4">
     <g id="text_13">
      <!-- 2-step -->
      <g style="fill: #262626" transform="translate(56.939063 146.609734) scale(0.11 -0.11)">
       <defs>
        <path id="ArialMT-70" d="M 422 -1272 
L 422 3319 
L 934 3319 
L 934 2888 
Q 1116 3141 1344 3267 
Q 1572 3394 1897 3394 
Q 2322 3394 2647 3175 
Q 2972 2956 3137 2557 
Q 3303 2159 3303 1684 
Q 3303 1175 3120 767 
Q 2938 359 2589 142 
Q 2241 -75 1856 -75 
Q 1575 -75 1351 44 
Q 1128 163 984 344 
L 984 -1272 
L 422 -1272 
z
M 931 1641 
Q 931 1000 1190 694 
Q 1450 388 1819 388 
Q 2194 388 2461 705 
Q 2728 1022 2728 1688 
Q 2728 2322 2467 2637 
Q 2206 2953 1844 2953 
Q 1484 2953 1207 2617 
Q 931 2281 931 1641 
z
" transform="scale(0.015625)"/>
       </defs>
       <use xlink:href="#ArialMT-32"/>
       <use xlink:href="#ArialMT-2d" transform="translate(55.615234 0)"/>
       <use xlink:href="#ArialMT-73" transform="translate(88.916016 0)"/>
       <use xlink:href="#ArialMT-74" transform="translate(138.916016 0)"/>
       <use xlink:href="#ArialMT-65" transform="translate(166.699219 0)"/>
       <use xlink:href="#ArialMT-70" transform="translate(222.314453 0)"/>
      </g>
      <!-- greedy -->
      <g style="fill: #262626" transform="translate(53.877969 158.244297) scale(0.11 -0.11)">
       <use xlink:href="#ArialMT-67"/>
       <use xlink:href="#ArialMT-72" transform="translate(55.615234 0)"/>
       <use xlink:href="#ArialMT-65" transform="translate(88.916016 0)"/>
       <use xlink:href="#ArialMT-65" transform="translate(144.53125 0)"/>
       <use xlink:href="#ArialMT-64" transform="translate(200.146484 0)"/>
       <use xlink:href="#ArialMT-79" transform="translate(255.761719 0)"/>
      </g>
     </g>
    </g>
    <g id="ytick_5">
     <g id="text_14">
      <!-- prob. greedy -->
      <g style="fill: #262626" transform="translate(25.752344 190.733766) scale(0.11 -0.11)">
       <defs>
        <path id="ArialMT-62" d="M 941 0 
L 419 0 
L 419 4581 
L 981 4581 
L 981 2947 
Q 1338 3394 1891 3394 
Q 2197 3394 2470 3270 
Q 2744 3147 2920 2923 
Q 3097 2700 3197 2384 
Q 3297 2069 3297 1709 
Q 3297 856 2875 390 
Q 2453 -75 1863 -75 
Q 1275 -75 941 416 
L 941 0 
z
M 934 1684 
Q 934 1088 1097 822 
Q 1363 388 1816 388 
Q 2184 388 2453 708 
Q 2722 1028 2722 1663 
Q 2722 2313 2464 2622 
Q 2206 2931 1841 2931 
Q 1472 2931 1203 2611 
Q 934 2291 934 1684 
z
" transform="scale(0.015625)"/>
        <path id="ArialMT-2e" d="M 581 0 
L 581 641 
L 1222 641 
L 1222 0 
L 581 0 
z
" transform="scale(0.015625)"/>
        <path id="ArialMT-20" transform="scale(0.015625)"/>
       </defs>
       <use xlink:href="#ArialMT-70"/>
       <use xlink:href="#ArialMT-72" transform="translate(55.615234 0)"/>
       <use xlink:href="#ArialMT-6f" transform="translate(88.916016 0)"/>
       <use xlink:href="#ArialMT-62" transform="translate(144.53125 0)"/>
       <use xlink:href="#ArialMT-2e" transform="translate(200.146484 0)"/>
       <use xlink:href="#ArialMT-20" transform="translate(227.929688 0)"/>
       <use xlink:href="#ArialMT-67" transform="translate(255.712891 0)"/>
       <use xlink:href="#ArialMT-72" transform="translate(311.328125 0)"/>
       <use xlink:href="#ArialMT-65" transform="translate(344.628906 0)"/>
       <use xlink:href="#ArialMT-65" transform="translate(400.244141 0)"/>
       <use xlink:href="#ArialMT-64" transform="translate(455.859375 0)"/>
       <use xlink:href="#ArialMT-79" transform="translate(511.474609 0)"/>
      </g>
     </g>
    </g>
    <g id="ytick_6">
     <g id="text_15">
      <!-- LA -->
      <g style="fill: #262626" transform="translate(74.054375 224.814281) scale(0.11 -0.11)">
       <defs>
        <path id="ArialMT-4c" d="M 469 0 
L 469 4581 
L 1075 4581 
L 1075 541 
L 3331 541 
L 3331 0 
L 469 0 
z
" transform="scale(0.015625)"/>
        <path id="ArialMT-41" d="M -9 0 
L 1750 4581 
L 2403 4581 
L 4278 0 
L 3588 0 
L 3053 1388 
L 1138 1388 
L 634 0 
L -9 0 
z
M 1313 1881 
L 2866 1881 
L 2388 3150 
Q 2169 3728 2063 4100 
Q 1975 3659 1816 3225 
L 1313 1881 
z
" transform="scale(0.015625)"/>
       </defs>
       <use xlink:href="#ArialMT-4c"/>
       <use xlink:href="#ArialMT-41" transform="translate(55.615234 0)"/>
      </g>
      <!-- replanning -->
      <g style="fill: #262626" transform="translate(36.13875 236.448844) scale(0.11 -0.11)">
       <defs>
        <path id="ArialMT-6e" d="M 422 0 
L 422 3319 
L 928 3319 
L 928 2847 
Q 1294 3394 1984 3394 
Q 2284 3394 2536 3286 
Q 2788 3178 2913 3003 
Q 3038 2828 3088 2588 
Q 3119 2431 3119 2041 
L 3119 0 
L 2556 0 
L 2556 2019 
Q 2556 2363 2490 2533 
Q 2425 2703 2258 2804 
Q 2091 2906 1866 2906 
Q 1506 2906 1245 2678 
Q 984 2450 984 1813 
L 984 0 
L 422 0 
z
" transform="scale(0.015625)"/>
       </defs>
       <use xlink:href="#ArialMT-72"/>
       <use xlink:href="#ArialMT-65" transform="translate(33.300781 0)"/>
       <use xlink:href="#ArialMT-70" transform="translate(88.916016 0)"/>
       <use xlink:href="#ArialMT-6c" transform="translate(144.53125 0)"/>
       <use xlink:href="#ArialMT-61" transform="translate(166.748047 0)"/>
       <use xlink:href="#ArialMT-6e" transform="translate(222.363281 0)"/>
       <use xlink:href="#ArialMT-6e" transform="translate(277.978516 0)"/>
       <use xlink:href="#ArialMT-69" transform="translate(333.59375 0)"/>
       <use xlink:href="#ArialMT-6e" transform="translate(355.810547 0)"/>
       <use xlink:href="#ArialMT-67" transform="translate(411.425781 0)"/>
      </g>
     </g>
    </g>
    <g id="text_16">
     <!-- Strategy -->
     <g style="fill: #262626" transform="translate(19.226719 152.138813) rotate(-90) scale(0.12 -0.12)">
      <defs>
       <path id="Arial-BoldMT-53" d="M 231 1491 
L 1131 1578 
Q 1213 1125 1461 912 
Q 1709 700 2131 700 
Q 2578 700 2804 889 
Q 3031 1078 3031 1331 
Q 3031 1494 2936 1608 
Q 2841 1722 2603 1806 
Q 2441 1863 1863 2006 
Q 1119 2191 819 2459 
Q 397 2838 397 3381 
Q 397 3731 595 4036 
Q 794 4341 1167 4500 
Q 1541 4659 2069 4659 
Q 2931 4659 3367 4281 
Q 3803 3903 3825 3272 
L 2900 3231 
Q 2841 3584 2645 3739 
Q 2450 3894 2059 3894 
Q 1656 3894 1428 3728 
Q 1281 3622 1281 3444 
Q 1281 3281 1419 3166 
Q 1594 3019 2269 2859 
Q 2944 2700 3267 2529 
Q 3591 2359 3773 2064 
Q 3956 1769 3956 1334 
Q 3956 941 3737 597 
Q 3519 253 3119 86 
Q 2719 -81 2122 -81 
Q 1253 -81 787 320 
Q 322 722 231 1491 
z
" transform="scale(0.015625)"/>
       <path id="Arial-BoldMT-72" d="M 1300 0 
L 422 0 
L 422 3319 
L 1238 3319 
L 1238 2847 
Q 1447 3181 1614 3287 
Q 1781 3394 1994 3394 
Q 2294 3394 2572 3228 
L 2300 2463 
Q 2078 2606 1888 2606 
Q 1703 2606 1575 2504 
Q 1447 2403 1373 2137 
Q 1300 1872 1300 1025 
L 1300 0 
z
" transform="scale(0.015625)"/>
       <path id="Arial-BoldMT-67" d="M 378 -219 
L 1381 -341 
Q 1406 -516 1497 -581 
Q 1622 -675 1891 -675 
Q 2234 -675 2406 -572 
Q 2522 -503 2581 -350 
Q 2622 -241 2622 53 
L 2622 538 
Q 2228 0 1628 0 
Q 959 0 569 566 
Q 263 1013 263 1678 
Q 263 2513 664 2953 
Q 1066 3394 1663 3394 
Q 2278 3394 2678 2853 
L 2678 3319 
L 3500 3319 
L 3500 341 
Q 3500 -247 3403 -537 
Q 3306 -828 3131 -993 
Q 2956 -1159 2664 -1253 
Q 2372 -1347 1925 -1347 
Q 1081 -1347 728 -1058 
Q 375 -769 375 -325 
Q 375 -281 378 -219 
z
M 1163 1728 
Q 1163 1200 1367 954 
Q 1572 709 1872 709 
Q 2194 709 2416 961 
Q 2638 1213 2638 1706 
Q 2638 2222 2425 2472 
Q 2213 2722 1888 2722 
Q 1572 2722 1367 2476 
Q 1163 2231 1163 1728 
z
" transform="scale(0.015625)"/>
       <path id="Arial-BoldMT-79" d="M 44 3319 
L 978 3319 
L 1772 963 
L 2547 3319 
L 3456 3319 
L 2284 125 
L 2075 -453 
Q 1959 -744 1854 -897 
Q 1750 -1050 1614 -1145 
Q 1478 -1241 1279 -1294 
Q 1081 -1347 831 -1347 
Q 578 -1347 334 -1294 
L 256 -606 
Q 463 -647 628 -647 
Q 934 -647 1081 -467 
Q 1228 -288 1306 -9 
L 44 3319 
z
" transform="scale(0.015625)"/>
      </defs>
      <use xlink:href="#Arial-BoldMT-53"/>
      <use xlink:href="#Arial-BoldMT-74" transform="translate(66.699219 0)"/>
      <use xlink:href="#Arial-BoldMT-72" transform="translate(100 0)"/>
      <use xlink:href="#Arial-BoldMT-61" transform="translate(138.916016 0)"/>
      <use xlink:href="#Arial-BoldMT-74" transform="translate(194.53125 0)"/>
      <use xlink:href="#Arial-BoldMT-65" transform="translate(227.832031 0)"/>
      <use xlink:href="#Arial-BoldMT-67" transform="translate(283.447266 0)"/>
      <use xlink:href="#Arial-BoldMT-79" transform="translate(344.53125 0)"/>
     </g>
    </g>
   </g>
   <g id="patch_3">
    <path d="M 97.00875 14.711044 
L 345.188424 14.711044 
L 345.188424 45.999394 
L 97.00875 45.999394 
z
" clip-path="url(#p96e99b7395)" style="fill: #107010; opacity: 0.7; stroke: #ffffff; stroke-linejoin: miter"/>
   </g>
   <g id="patch_4">
    <path d="M 97.00875 53.821481 
L 344.391223 53.821481 
L 344.391223 85.109831 
L 97.00875 85.109831 
z
" clip-path="url(#p96e99b7395)" style="fill: #107010; opacity: 0.7; stroke: #ffffff; stroke-linejoin: miter"/>
   </g>
   <g id="patch_5">
    <path d="M 97.00875 92.931919 
L 343.959297 92.931919 
L 343.959297 124.220269 
L 97.00875 124.220269 
z
" clip-path="url(#p96e99b7395)" style="fill: #107010; opacity: 0.7; stroke: #ffffff; stroke-linejoin: miter"/>
   </g>
   <g id="patch_6">
    <path d="M 97.00875 132.042356 
L 322.285124 132.042356 
L 322.285124 163.330706 
L 97.00875 163.330706 
z
" clip-path="url(#p96e99b7395)" style="fill: #107010; opacity: 0.7; stroke: #ffffff; stroke-linejoin: miter"/>
   </g>
   <g id="patch_7">
    <path d="M 97.00875 171.152794 
L 288.925593 171.152794 
L 288.925593 202.441144 
L 97.00875 202.441144 
z
" clip-path="url(#p96e99b7395)" style="fill: #107010; opacity: 0.7; stroke: #ffffff; stroke-linejoin: miter"/>
   </g>
   <g id="patch_8">
    <path d="M 97.00875 210.263231 
L 98.739914 210.263231 
L 98.739914 241.551581 
L 97.00875 241.551581 
z
" clip-path="url(#p96e99b7395)" style="fill: #107010; opacity: 0.7; stroke: #ffffff; stroke-linejoin: miter"/>
   </g>
   <g id="line2d_9">
    <path clip-path="url(#p96e99b7395)" style="fill: none; stroke: #424242; stroke-width: 2.25; stroke-linecap: round"/>
   </g>
   <g id="line2d_10">
    <path clip-path="url(#p96e99b7395)" style="fill: none; stroke: #424242; stroke-width: 2.25; stroke-linecap: round"/>
   </g>
   <g id="line2d_11">
    <path clip-path="url(#p96e99b7395)" style="fill: none; stroke: #424242; stroke-width: 2.25; stroke-linecap: round"/>
   </g>
   <g id="line2d_12">
    <path clip-path="url(#p96e99b7395)" style="fill: none; stroke: #424242; stroke-width: 2.25; stroke-linecap: round"/>
   </g>
   <g id="line2d_13">
    <path clip-path="url(#p96e99b7395)" style="fill: none; stroke: #424242; stroke-width: 2.25; stroke-linecap: round"/>
   </g>
   <g id="line2d_14">
    <path clip-path="url(#p96e99b7395)" style="fill: none; stroke: #424242; stroke-width: 2.25; stroke-linecap: round"/>
   </g>
   <g id="patch_9">
    <path d="M 97.00875 245.462625 
L 97.00875 10.8 
" style="fill: none; stroke: #cccccc; stroke-width: 1.25; stroke-linejoin: miter; stroke-linecap: square"/>
   </g>
   <g id="patch_10">
    <path d="M 97.00875 245.462625 
L 382.415375 245.462625 
" style="fill: none; stroke: #cccccc; stroke-width: 1.25; stroke-linejoin: miter; stroke-linecap: square"/>
   </g>
   <g id="text_17">
    <!-- 66.0% -->
    <g style="fill: #262626" transform="translate(348.188424 32.940375) scale(0.1 -0.1)">
     <use xlink:href="#ArialMT-36"/>
     <use xlink:href="#ArialMT-36" transform="translate(55.615234 0)"/>
     <use xlink:href="#ArialMT-2e" transform="translate(111.230469 0)"/>
     <use xlink:href="#ArialMT-30" transform="translate(139.013672 0)"/>
     <use xlink:href="#ArialMT-25" transform="translate(194.628906 0)"/>
    </g>
   </g>
   <g id="text_18">
    <!-- 65.8% -->
    <g style="fill: #262626" transform="translate(347.391223 72.050813) scale(0.1 -0.1)">
     <defs>
      <path id="ArialMT-38" d="M 1131 2484 
Q 781 2613 612 2850 
Q 444 3088 444 3419 
Q 444 3919 803 4259 
Q 1163 4600 1759 4600 
Q 2359 4600 2725 4251 
Q 3091 3903 3091 3403 
Q 3091 3084 2923 2848 
Q 2756 2613 2416 2484 
Q 2838 2347 3058 2040 
Q 3278 1734 3278 1309 
Q 3278 722 2862 322 
Q 2447 -78 1769 -78 
Q 1091 -78 675 323 
Q 259 725 259 1325 
Q 259 1772 486 2073 
Q 713 2375 1131 2484 
z
M 1019 3438 
Q 1019 3113 1228 2906 
Q 1438 2700 1772 2700 
Q 2097 2700 2305 2904 
Q 2513 3109 2513 3406 
Q 2513 3716 2298 3927 
Q 2084 4138 1766 4138 
Q 1444 4138 1231 3931 
Q 1019 3725 1019 3438 
z
M 838 1322 
Q 838 1081 952 856 
Q 1066 631 1291 507 
Q 1516 384 1775 384 
Q 2178 384 2440 643 
Q 2703 903 2703 1303 
Q 2703 1709 2433 1975 
Q 2163 2241 1756 2241 
Q 1359 2241 1098 1978 
Q 838 1716 838 1322 
z
" transform="scale(0.015625)"/>
     </defs>
     <use xlink:href="#ArialMT-36"/>
     <use xlink:href="#ArialMT-35" transform="translate(55.615234 0)"/>
     <use xlink:href="#ArialMT-2e" transform="translate(111.230469 0)"/>
     <use xlink:href="#ArialMT-38" transform="translate(139.013672 0)"/>
     <use xlink:href="#ArialMT-25" transform="translate(194.628906 0)"/>
    </g>
   </g>
   <g id="text_19">
    <!-- 65.7% -->
    <g style="fill: #262626" transform="translate(346.959297 111.16125) scale(0.1 -0.1)">
     <use xlink:href="#ArialMT-36"/>
     <use xlink:href="#ArialMT-35" transform="translate(55.615234 0)"/>
     <use xlink:href="#ArialMT-2e" transform="translate(111.230469 0)"/>
     <use xlink:href="#ArialMT-37" transform="translate(139.013672 0)"/>
     <use xlink:href="#ArialMT-25" transform="translate(194.628906 0)"/>
    </g>
   </g>
   <g id="text_20">
    <!-- 59.9% -->
    <g style="fill: #262626" transform="translate(325.285124 150.271688) scale(0.1 -0.1)">
     <defs>
      <path id="ArialMT-39" d="M 350 1059 
L 891 1109 
Q 959 728 1153 556 
Q 1347 384 1650 384 
Q 1909 384 2104 503 
Q 2300 622 2425 820 
Q 2550 1019 2634 1356 
Q 2719 1694 2719 2044 
Q 2719 2081 2716 2156 
Q 2547 1888 2255 1720 
Q 1963 1553 1622 1553 
Q 1053 1553 659 1965 
Q 266 2378 266 3053 
Q 266 3750 677 4175 
Q 1088 4600 1706 4600 
Q 2153 4600 2523 4359 
Q 2894 4119 3086 3673 
Q 3278 3228 3278 2384 
Q 3278 1506 3087 986 
Q 2897 466 2520 194 
Q 2144 -78 1638 -78 
Q 1100 -78 759 220 
Q 419 519 350 1059 
z
M 2653 3081 
Q 2653 3566 2395 3850 
Q 2138 4134 1775 4134 
Q 1400 4134 1122 3828 
Q 844 3522 844 3034 
Q 844 2597 1108 2323 
Q 1372 2050 1759 2050 
Q 2150 2050 2401 2323 
Q 2653 2597 2653 3081 
z
" transform="scale(0.015625)"/>
     </defs>
     <use xlink:href="#ArialMT-35"/>
     <use xlink:href="#ArialMT-39" transform="translate(55.615234 0)"/>
     <use xlink:href="#ArialMT-2e" transform="translate(111.230469 0)"/>
     <use xlink:href="#ArialMT-39" transform="translate(139.013672 0)"/>
     <use xlink:href="#ArialMT-25" transform="translate(194.628906 0)"/>
    </g>
   </g>
   <g id="text_21">
    <!-- 51.0% -->
    <g style="fill: #262626" transform="translate(291.925593 189.382125) scale(0.1 -0.1)">
     <use xlink:href="#ArialMT-35"/>
     <use xlink:href="#ArialMT-31" transform="translate(55.615234 0)"/>
     <use xlink:href="#ArialMT-2e" transform="translate(111.230469 0)"/>
     <use xlink:href="#ArialMT-30" transform="translate(139.013672 0)"/>
     <use xlink:href="#ArialMT-25" transform="translate(194.628906 0)"/>
    </g>
   </g>
   <g id="text_22">
    <!-- 0.5% -->
    <g style="fill: #262626" transform="translate(101.739914 228.492563) scale(0.1 -0.1)">
     <use xlink:href="#ArialMT-30"/>
     <use xlink:href="#ArialMT-2e" transform="translate(55.615234 0)"/>
     <use xlink:href="#ArialMT-35" transform="translate(83.398438 0)"/>
     <use xlink:href="#ArialMT-25" transform="translate(139.013672 0)"/>
    </g>
   </g>
  </g>
  <g id="axes_2">
   <g id="patch_11">
    <path d="M 464.545375 245.462625 
L 749.952 245.462625 
L 749.952 10.8 
L 464.545375 10.8 
z
" style="fill: #ffffff"/>
   </g>
   <g id="matplotlib.axis_3">
    <g id="xtick_9">
     <g id="line2d_15">
      <path d="M 464.545375 245.462625 
L 464.545375 10.8 
" clip-path="url(#pda2ed351e9)" style="fill: none; stroke-dasharray: 3.7,1.6; stroke-dashoffset: 0; stroke: #cccccc"/>
     </g>
     <g id="text_23">
      <!-- 0% -->
      <g style="fill: #262626" transform="translate(456.596156 262.836219) scale(0.11 -0.11)">
       <use xlink:href="#ArialMT-30"/>
       <use xlink:href="#ArialMT-25" transform="translate(55.615234 0)"/>
      </g>
     </g>
    </g>
    <g id="xtick_10">
     <g id="line2d_16">
      <path d="M 514.410158 245.462625 
L 514.410158 10.8 
" clip-path="url(#pda2ed351e9)" style="fill: none; stroke-dasharray: 3.7,1.6; stroke-dashoffset: 0; stroke: #cccccc"/>
     </g>
     <g id="text_24">
      <!-- 20% -->
      <g style="fill: #262626" transform="translate(503.402423 262.836219) scale(0.11 -0.11)">
       <use xlink:href="#ArialMT-32"/>
       <use xlink:href="#ArialMT-30" transform="translate(55.615234 0)"/>
       <use xlink:href="#ArialMT-25" transform="translate(111.230469 0)"/>
      </g>
     </g>
    </g>
    <g id="xtick_11">
     <g id="line2d_17">
      <path d="M 564.274941 245.462625 
L 564.274941 10.8 
" clip-path="url(#pda2ed351e9)" style="fill: none; stroke-dasharray: 3.7,1.6; stroke-dashoffset: 0; stroke: #cccccc"/>
     </g>
     <g id="text_25">
      <!-- 40% -->
      <g style="fill: #262626" transform="translate(553.267206 262.836219) scale(0.11 -0.11)">
       <use xlink:href="#ArialMT-34"/>
       <use xlink:href="#ArialMT-30" transform="translate(55.615234 0)"/>
       <use xlink:href="#ArialMT-25" transform="translate(111.230469 0)"/>
      </g>
     </g>
    </g>
    <g id="xtick_12">
     <g id="line2d_18">
      <path d="M 614.139723 245.462625 
L 614.139723 10.8 
" clip-path="url(#pda2ed351e9)" style="fill: none; stroke-dasharray: 3.7,1.6; stroke-dashoffset: 0; stroke: #cccccc"/>
     </g>
     <g id="text_26">
      <!-- 60% -->
      <g style="fill: #262626" transform="translate(603.131989 262.836219) scale(0.11 -0.11)">
       <use xlink:href="#ArialMT-36"/>
       <use xlink:href="#ArialMT-30" transform="translate(55.615234 0)"/>
       <use xlink:href="#ArialMT-25" transform="translate(111.230469 0)"/>
      </g>
     </g>
    </g>
    <g id="xtick_13">
     <g id="line2d_19">
      <path d="M 664.004506 245.462625 
L 664.004506 10.8 
" clip-path="url(#pda2ed351e9)" style="fill: none; stroke-dasharray: 3.7,1.6; stroke-dashoffset: 0; stroke: #cccccc"/>
     </g>
     <g id="text_27">
      <!-- 80% -->
      <g style="fill: #262626" transform="translate(652.996772 262.836219) scale(0.11 -0.11)">
       <use xlink:href="#ArialMT-38"/>
       <use xlink:href="#ArialMT-30" transform="translate(55.615234 0)"/>
       <use xlink:href="#ArialMT-25" transform="translate(111.230469 0)"/>
      </g>
     </g>
    </g>
    <g id="xtick_14">
     <g id="line2d_20">
      <path d="M 713.869289 245.462625 
L 713.869289 10.8 
" clip-path="url(#pda2ed351e9)" style="fill: none; stroke-dasharray: 3.7,1.6; stroke-dashoffset: 0; stroke: #cccccc"/>
     </g>
     <g id="text_28">
      <!-- 100% -->
      <g style="fill: #262626" transform="translate(699.803039 262.836219) scale(0.11 -0.11)">
       <use xlink:href="#ArialMT-31"/>
       <use xlink:href="#ArialMT-30" transform="translate(55.615234 0)"/>
       <use xlink:href="#ArialMT-30" transform="translate(111.230469 0)"/>
       <use xlink:href="#ArialMT-25" transform="translate(166.845703 0)"/>
      </g>
     </g>
    </g>
    <g id="text_29">
     <!-- Break Rate -->
     <g style="fill: #262626" transform="translate(575.899625 277.611844) scale(0.12 -0.12)">
      <defs>
       <path id="Arial-BoldMT-42" d="M 469 4581 
L 2300 4581 
Q 2844 4581 3111 4536 
Q 3378 4491 3589 4347 
Q 3800 4203 3940 3964 
Q 4081 3725 4081 3428 
Q 4081 3106 3907 2837 
Q 3734 2569 3438 2434 
Q 3856 2313 4081 2019 
Q 4306 1725 4306 1328 
Q 4306 1016 4161 720 
Q 4016 425 3764 248 
Q 3513 72 3144 31 
Q 2913 6 2028 0 
L 469 0 
L 469 4581 
z
M 1394 3819 
L 1394 2759 
L 2000 2759 
Q 2541 2759 2672 2775 
Q 2909 2803 3045 2939 
Q 3181 3075 3181 3297 
Q 3181 3509 3064 3642 
Q 2947 3775 2716 3803 
Q 2578 3819 1925 3819 
L 1394 3819 
z
M 1394 1997 
L 1394 772 
L 2250 772 
Q 2750 772 2884 800 
Q 3091 838 3220 983 
Q 3350 1128 3350 1372 
Q 3350 1578 3250 1722 
Q 3150 1866 2961 1931 
Q 2772 1997 2141 1997 
L 1394 1997 
z
" transform="scale(0.015625)"/>
       <path id="Arial-BoldMT-6b" d="M 428 0 
L 428 4581 
L 1306 4581 
L 1306 2150 
L 2334 3319 
L 3416 3319 
L 2281 2106 
L 3497 0 
L 2550 0 
L 1716 1491 
L 1306 1063 
L 1306 0 
L 428 0 
z
" transform="scale(0.015625)"/>
      </defs>
      <use xlink:href="#Arial-BoldMT-42"/>
      <use xlink:href="#Arial-BoldMT-72" transform="translate(72.216797 0)"/>
      <use xlink:href="#Arial-BoldMT-65" transform="translate(111.132812 0)"/>
      <use xlink:href="#Arial-BoldMT-61" transform="translate(166.748047 0)"/>
      <use xlink:href="#Arial-BoldMT-6b" transform="translate(222.363281 0)"/>
      <use xlink:href="#Arial-BoldMT-20" transform="translate(277.978516 0)"/>
      <use xlink:href="#Arial-BoldMT-52" transform="translate(305.761719 0)"/>
      <use xlink:href="#Arial-BoldMT-61" transform="translate(377.978516 0)"/>
      <use xlink:href="#Arial-BoldMT-74" transform="translate(433.59375 0)"/>
      <use xlink:href="#Arial-BoldMT-65" transform="translate(466.894531 0)"/>
     </g>
    </g>
   </g>
   <g id="matplotlib.axis_4">
    <g id="ytick_7">
     <g id="text_30">
      <!-- greedy -->
      <g style="fill: #262626" transform="translate(421.414594 34.292016) scale(0.11 -0.11)">
       <use xlink:href="#ArialMT-67"/>
       <use xlink:href="#ArialMT-72" transform="translate(55.615234 0)"/>
       <use xlink:href="#ArialMT-65" transform="translate(88.916016 0)"/>
       <use xlink:href="#ArialMT-65" transform="translate(144.53125 0)"/>
       <use xlink:href="#ArialMT-64" transform="translate(200.146484 0)"/>
       <use xlink:href="#ArialMT-79" transform="translate(255.761719 0)"/>
      </g>
     </g>
    </g>
    <g id="ytick_8">
     <g id="text_31">
      <!-- rollout -->
      <g style="fill: #262626" transform="translate(425.087562 73.402453) scale(0.11 -0.11)">
       <use xlink:href="#ArialMT-72"/>
       <use xlink:href="#ArialMT-6f" transform="translate(33.300781 0)"/>
       <use xlink:href="#ArialMT-6c" transform="translate(88.916016 0)"/>
       <use xlink:href="#ArialMT-6c" transform="translate(111.132812 0)"/>
       <use xlink:href="#ArialMT-6f" transform="translate(133.349609 0)"/>
       <use xlink:href="#ArialMT-75" transform="translate(188.964844 0)"/>
       <use xlink:href="#ArialMT-74" transform="translate(244.580078 0)"/>
      </g>
     </g>
    </g>
    <g id="ytick_9">
     <g id="text_32">
      <!-- risk-averse -->
      <g style="fill: #262626" transform="translate(401.26225 107.482969) scale(0.11 -0.11)">
       <use xlink:href="#ArialMT-72"/>
       <use xlink:href="#ArialMT-69" transform="translate(33.300781 0)"/>
       <use xlink:href="#ArialMT-73" transform="translate(55.517578 0)"/>
       <use xlink:href="#ArialMT-6b" transform="translate(105.517578 0)"/>
       <use xlink:href="#ArialMT-2d" transform="translate(155.517578 0)"/>
       <use xlink:href="#ArialMT-61" transform="translate(188.818359 0)"/>
       <use xlink:href="#ArialMT-76" transform="translate(244.433594 0)"/>
       <use xlink:href="#ArialMT-65" transform="translate(294.433594 0)"/>
       <use xlink:href="#ArialMT-72" transform="translate(350.048828 0)"/>
       <use xlink:href="#ArialMT-73" transform="translate(383.349609 0)"/>
       <use xlink:href="#ArialMT-65" transform="translate(433.349609 0)"/>
      </g>
      <!-- greedy -->
      <g style="fill: #262626" transform="translate(421.414594 119.117531) scale(0.11 -0.11)">
       <use xlink:href="#ArialMT-67"/>
       <use xlink:href="#ArialMT-72" transform="translate(55.615234 0)"/>
       <use xlink:href="#ArialMT-65" transform="translate(88.916016 0)"/>
       <use xlink:href="#ArialMT-65" transform="translate(144.53125 0)"/>
       <use xlink:href="#ArialMT-64" transform="translate(200.146484 0)"/>
       <use xlink:href="#ArialMT-79" transform="translate(255.761719 0)"/>
      </g>
     </g>
    </g>
    <g id="ytick_10">
     <g id="text_33">
      <!-- 2-step -->
      <g style="fill: #262626" transform="translate(424.475687 146.609734) scale(0.11 -0.11)">
       <use xlink:href="#ArialMT-32"/>
       <use xlink:href="#ArialMT-2d" transform="translate(55.615234 0)"/>
       <use xlink:href="#ArialMT-73" transform="translate(88.916016 0)"/>
       <use xlink:href="#ArialMT-74" transform="translate(138.916016 0)"/>
       <use xlink:href="#ArialMT-65" transform="translate(166.699219 0)"/>
       <use xlink:href="#ArialMT-70" transform="translate(222.314453 0)"/>
      </g>
      <!-- greedy -->
      <g style="fill: #262626" transform="translate(421.414594 158.244297) scale(0.11 -0.11)">
       <use xlink:href="#ArialMT-67"/>
       <use xlink:href="#ArialMT-72" transform="translate(55.615234 0)"/>
       <use xlink:href="#ArialMT-65" transform="translate(88.916016 0)"/>
       <use xlink:href="#ArialMT-65" transform="translate(144.53125 0)"/>
       <use xlink:href="#ArialMT-64" transform="translate(200.146484 0)"/>
       <use xlink:href="#ArialMT-79" transform="translate(255.761719 0)"/>
      </g>
     </g>
    </g>
    <g id="ytick_11">
     <g id="text_34">
      <!-- prob. greedy -->
      <g style="fill: #262626" transform="translate(393.288969 190.733766) scale(0.11 -0.11)">
       <use xlink:href="#ArialMT-70"/>
       <use xlink:href="#ArialMT-72" transform="translate(55.615234 0)"/>
       <use xlink:href="#ArialMT-6f" transform="translate(88.916016 0)"/>
       <use xlink:href="#ArialMT-62" transform="translate(144.53125 0)"/>
       <use xlink:href="#ArialMT-2e" transform="translate(200.146484 0)"/>
       <use xlink:href="#ArialMT-20" transform="translate(227.929688 0)"/>
       <use xlink:href="#ArialMT-67" transform="translate(255.712891 0)"/>
       <use xlink:href="#ArialMT-72" transform="translate(311.328125 0)"/>
       <use xlink:href="#ArialMT-65" transform="translate(344.628906 0)"/>
       <use xlink:href="#ArialMT-65" transform="translate(400.244141 0)"/>
       <use xlink:href="#ArialMT-64" transform="translate(455.859375 0)"/>
       <use xlink:href="#ArialMT-79" transform="translate(511.474609 0)"/>
      </g>
     </g>
    </g>
    <g id="ytick_12">
     <g id="text_35">
      <!-- LA -->
      <g style="fill: #262626" transform="translate(441.591 224.814281) scale(0.11 -0.11)">
       <use xlink:href="#ArialMT-4c"/>
       <use xlink:href="#ArialMT-41" transform="translate(55.615234 0)"/>
      </g>
      <!-- replanning -->
      <g style="fill: #262626" transform="translate(403.675375 236.448844) scale(0.11 -0.11)">
       <use xlink:href="#ArialMT-72"/>
       <use xlink:href="#ArialMT-65" transform="translate(33.300781 0)"/>
       <use xlink:href="#ArialMT-70" transform="translate(88.916016 0)"/>
       <use xlink:href="#ArialMT-6c" transform="translate(144.53125 0)"/>
       <use xlink:href="#ArialMT-61" transform="translate(166.748047 0)"/>
       <use xlink:href="#ArialMT-6e" transform="translate(222.363281 0)"/>
       <use xlink:href="#ArialMT-6e" transform="translate(277.978516 0)"/>
       <use xlink:href="#ArialMT-69" transform="translate(333.59375 0)"/>
       <use xlink:href="#ArialMT-6e" transform="translate(355.810547 0)"/>
       <use xlink:href="#ArialMT-67" transform="translate(411.425781 0)"/>
      </g>
     </g>
    </g>
   </g>
   <g id="patch_12">
    <path d="M 464.545375 14.711044 
L 549.098702 14.711044 
L 549.098702 45.999394 
L 464.545375 45.999394 
z
" clip-path="url(#pda2ed351e9)" style="fill: #df2020; opacity: 0.7; stroke: #ffffff; stroke-linejoin: miter"/>
   </g>
   <g id="patch_13">
    <path d="M 464.545375 53.821481 
L 549.315506 53.821481 
L 549.315506 85.109831 
L 464.545375 85.109831 
z
" clip-path="url(#pda2ed351e9)" style="fill: #df2020; opacity: 0.7; stroke: #ffffff; stroke-linejoin: miter"/>
   </g>
   <g id="patch_14">
    <path d="M 464.545375 92.931919 
L 550.634393 92.931919 
L 550.634393 124.220269 
L 464.545375 124.220269 
z
" clip-path="url(#pda2ed351e9)" style="fill: #df2020; opacity: 0.7; stroke: #ffffff; stroke-linejoin: miter"/>
   </g>
   <g id="patch_15">
    <path d="M 464.545375 132.042356 
L 564.094271 132.042356 
L 564.094271 163.330706 
L 464.545375 163.330706 
z
" clip-path="url(#pda2ed351e9)" style="fill: #df2020; opacity: 0.7; stroke: #ffffff; stroke-linejoin: miter"/>
   </g>
   <g id="patch_16">
    <path d="M 464.545375 171.152794 
L 587.581307 171.152794 
L 587.581307 202.441144 
L 464.545375 202.441144 
z
" clip-path="url(#pda2ed351e9)" style="fill: #df2020; opacity: 0.7; stroke: #ffffff; stroke-linejoin: miter"/>
   </g>
   <g id="patch_17">
    <path d="M 464.545375 210.263231 
L 712.725049 210.263231 
L 712.725049 241.551581 
L 464.545375 241.551581 
z
" clip-path="url(#pda2ed351e9)" style="fill: #df2020; opacity: 0.7; stroke: #ffffff; stroke-linejoin: miter"/>
   </g>
   <g id="line2d_21">
    <path clip-path="url(#pda2ed351e9)" style="fill: none; stroke: #424242; stroke-width: 2.25; stroke-linecap: round"/>
   </g>
   <g id="line2d_22">
    <path clip-path="url(#pda2ed351e9)" style="fill: none; stroke: #424242; stroke-width: 2.25; stroke-linecap: round"/>
   </g>
   <g id="line2d_23">
    <path clip-path="url(#pda2ed351e9)" style="fill: none; stroke: #424242; stroke-width: 2.25; stroke-linecap: round"/>
   </g>
   <g id="line2d_24">
    <path clip-path="url(#pda2ed351e9)" style="fill: none; stroke: #424242; stroke-width: 2.25; stroke-linecap: round"/>
   </g>
   <g id="line2d_25">
    <path clip-path="url(#pda2ed351e9)" style="fill: none; stroke: #424242; stroke-width: 2.25; stroke-linecap: round"/>
   </g>
   <g id="line2d_26">
    <path clip-path="url(#pda2ed351e9)" style="fill: none; stroke: #424242; stroke-width: 2.25; stroke-linecap: round"/>
   </g>
   <g id="patch_18">
    <path d="M 464.545375 245.462625 
L 464.545375 10.8 
" style="fill: none; stroke: #cccccc; stroke-width: 1.25; stroke-linejoin: miter; stroke-linecap: square"/>
   </g>
   <g id="patch_19">
    <path d="M 464.545375 245.462625 
L 749.952 245.462625 
" style="fill: none; stroke: #cccccc; stroke-width: 1.25; stroke-linejoin: miter; stroke-linecap: square"/>
   </g>
   <g id="text_36">
    <!-- 33.9% -->
    <g style="fill: #262626" transform="translate(552.098702 32.940375) scale(0.1 -0.1)">
     <use xlink:href="#ArialMT-33"/>
     <use xlink:href="#ArialMT-33" transform="translate(55.615234 0)"/>
     <use xlink:href="#ArialMT-2e" transform="translate(111.230469 0)"/>
     <use xlink:href="#ArialMT-39" transform="translate(139.013672 0)"/>
     <use xlink:href="#ArialMT-25" transform="translate(194.628906 0)"/>
    </g>
   </g>
   <g id="text_37">
    <!-- 34.0% -->
    <g style="fill: #262626" transform="translate(552.315506 72.050813) scale(0.1 -0.1)">
     <use xlink:href="#ArialMT-33"/>
     <use xlink:href="#ArialMT-34" transform="translate(55.615234 0)"/>
     <use xlink:href="#ArialMT-2e" transform="translate(111.230469 0)"/>
     <use xlink:href="#ArialMT-30" transform="translate(139.013672 0)"/>
     <use xlink:href="#ArialMT-25" transform="translate(194.628906 0)"/>
    </g>
   </g>
   <g id="text_38">
    <!-- 34.5% -->
    <g style="fill: #262626" transform="translate(553.634393 111.16125) scale(0.1 -0.1)">
     <use xlink:href="#ArialMT-33"/>
     <use xlink:href="#ArialMT-34" transform="translate(55.615234 0)"/>
     <use xlink:href="#ArialMT-2e" transform="translate(111.230469 0)"/>
     <use xlink:href="#ArialMT-35" transform="translate(139.013672 0)"/>
     <use xlink:href="#ArialMT-25" transform="translate(194.628906 0)"/>
    </g>
   </g>
   <g id="text_39">
    <!-- 39.9% -->
    <g style="fill: #262626" transform="translate(567.094271 150.271688) scale(0.1 -0.1)">
     <use xlink:href="#ArialMT-33"/>
     <use xlink:href="#ArialMT-39" transform="translate(55.615234 0)"/>
     <use xlink:href="#ArialMT-2e" transform="translate(111.230469 0)"/>
     <use xlink:href="#ArialMT-39" transform="translate(139.013672 0)"/>
     <use xlink:href="#ArialMT-25" transform="translate(194.628906 0)"/>
    </g>
   </g>
   <g id="text_40">
    <!-- 49.3% -->
    <g style="fill: #262626" transform="translate(590.581307 189.382125) scale(0.1 -0.1)">
     <use xlink:href="#ArialMT-34"/>
     <use xlink:href="#ArialMT-39" transform="translate(55.615234 0)"/>
     <use xlink:href="#ArialMT-2e" transform="translate(111.230469 0)"/>
     <use xlink:href="#ArialMT-33" transform="translate(139.013672 0)"/>
     <use xlink:href="#ArialMT-25" transform="translate(194.628906 0)"/>
    </g>
   </g>
   <g id="text_41">
    <!-- 99.5% -->
    <g style="fill: #262626" transform="translate(715.725049 228.492563) scale(0.1 -0.1)">
     <use xlink:href="#ArialMT-39"/>
     <use xlink:href="#ArialMT-39" transform="translate(55.615234 0)"/>
     <use xlink:href="#ArialMT-2e" transform="translate(111.230469 0)"/>
     <use xlink:href="#ArialMT-35" transform="translate(139.013672 0)"/>
     <use xlink:href="#ArialMT-25" transform="translate(194.628906 0)"/>
    </g>
   </g>
  </g>
  <g id="axes_3">
   <g id="patch_20">
    <path d="M 97.00875 525.30525 
L 749.952 525.30525 
L 749.952 290.642625 
L 97.00875 290.642625 
z
" style="fill: #ffffff"/>
   </g>
   <g id="matplotlib.axis_5">
    <g id="xtick_15">
     <g id="line2d_27">
      <path d="M 153.17793 525.30525 
L 153.17793 290.642625 
" clip-path="url(#pe082be3f50)" style="fill: none; stroke-dasharray: 3.7,1.6; stroke-dashoffset: 0; stroke: #cccccc"/>
     </g>
     <g id="text_42">
      <!-- -100% -->
      <g style="fill: #262626" transform="translate(137.280352 542.678844) scale(0.11 -0.11)">
       <use xlink:href="#ArialMT-2d"/>
       <use xlink:href="#ArialMT-31" transform="translate(33.300781 0)"/>
       <use xlink:href="#ArialMT-30" transform="translate(88.916016 0)"/>
       <use xlink:href="#ArialMT-30" transform="translate(144.53125 0)"/>
       <use xlink:href="#ArialMT-25" transform="translate(200.146484 0)"/>
      </g>
     </g>
    </g>
    <g id="xtick_16">
     <g id="line2d_28">
      <path d="M 233.749058 525.30525 
L 233.749058 290.642625 
" clip-path="url(#pe082be3f50)" style="fill: none; stroke-dasharray: 3.7,1.6; stroke-dashoffset: 0; stroke: #cccccc"/>
     </g>
     <g id="text_43">
      <!-- -80% -->
      <g style="fill: #262626" transform="translate(220.909996 542.678844) scale(0.11 -0.11)">
       <use xlink:href="#ArialMT-2d"/>
       <use xlink:href="#ArialMT-38" transform="translate(33.300781 0)"/>
       <use xlink:href="#ArialMT-30" transform="translate(88.916016 0)"/>
       <use xlink:href="#ArialMT-25" transform="translate(144.53125 0)"/>
      </g>
     </g>
    </g>
    <g id="xtick_17">
     <g id="line2d_29">
      <path d="M 314.320187 525.30525 
L 314.320187 290.642625 
" clip-path="url(#pe082be3f50)" style="fill: none; stroke-dasharray: 3.7,1.6; stroke-dashoffset: 0; stroke: #cccccc"/>
     </g>
     <g id="text_44">
      <!-- -60% -->
      <g style="fill: #262626" transform="translate(301.481124 542.678844) scale(0.11 -0.11)">
       <use xlink:href="#ArialMT-2d"/>
       <use xlink:href="#ArialMT-36" transform="translate(33.300781 0)"/>
       <use xlink:href="#ArialMT-30" transform="translate(88.916016 0)"/>
       <use xlink:href="#ArialMT-25" transform="translate(144.53125 0)"/>
      </g>
     </g>
    </g>
    <g id="xtick_18">
     <g id="line2d_30">
      <path d="M 394.891315 525.30525 
L 394.891315 290.642625 
" clip-path="url(#pe082be3f50)" style="fill: none; stroke-dasharray: 3.7,1.6; stroke-dashoffset: 0; stroke: #cccccc"/>
     </g>
     <g id="text_45">
      <!-- -40% -->
      <g style="fill: #262626" transform="translate(382.052252 542.678844) scale(0.11 -0.11)">
       <use xlink:href="#ArialMT-2d"/>
       <use xlink:href="#ArialMT-34" transform="translate(33.300781 0)"/>
       <use xlink:href="#ArialMT-30" transform="translate(88.916016 0)"/>
       <use xlink:href="#ArialMT-25" transform="translate(144.53125 0)"/>
      </g>
     </g>
    </g>
    <g id="xtick_19">
     <g id="line2d_31">
      <path d="M 475.462443 525.30525 
L 475.462443 290.642625 
" clip-path="url(#pe082be3f50)" style="fill: none; stroke-dasharray: 3.7,1.6; stroke-dashoffset: 0; stroke: #cccccc"/>
     </g>
     <g id="text_46">
      <!-- -20% -->
      <g style="fill: #262626" transform="translate(462.623381 542.678844) scale(0.11 -0.11)">
       <use xlink:href="#ArialMT-2d"/>
       <use xlink:href="#ArialMT-32" transform="translate(33.300781 0)"/>
       <use xlink:href="#ArialMT-30" transform="translate(88.916016 0)"/>
       <use xlink:href="#ArialMT-25" transform="translate(144.53125 0)"/>
      </g>
     </g>
    </g>
    <g id="xtick_20">
     <g id="line2d_32">
      <path d="M 556.033571 525.30525 
L 556.033571 290.642625 
" clip-path="url(#pe082be3f50)" style="fill: none; stroke-dasharray: 3.7,1.6; stroke-dashoffset: 0; stroke: #cccccc"/>
     </g>
     <g id="text_47">
      <!-- +0% -->
      <g style="fill: #262626" transform="translate(544.872009 542.678844) scale(0.11 -0.11)">
       <defs>
        <path id="ArialMT-2b" d="M 1603 741 
L 1603 1997 
L 356 1997 
L 356 2522 
L 1603 2522 
L 1603 3769 
L 2134 3769 
L 2134 2522 
L 3381 2522 
L 3381 1997 
L 2134 1997 
L 2134 741 
L 1603 741 
z
" transform="scale(0.015625)"/>
       </defs>
       <use xlink:href="#ArialMT-2b"/>
       <use xlink:href="#ArialMT-30" transform="translate(58.398438 0)"/>
       <use xlink:href="#ArialMT-25" transform="translate(114.013672 0)"/>
      </g>
     </g>
    </g>
    <g id="xtick_21">
     <g id="line2d_33">
      <path d="M 636.604699 525.30525 
L 636.604699 290.642625 
" clip-path="url(#pe082be3f50)" style="fill: none; stroke-dasharray: 3.7,1.6; stroke-dashoffset: 0; stroke: #cccccc"/>
     </g>
     <g id="text_48">
      <!-- +20% -->
      <g style="fill: #262626" transform="translate(622.384621 542.678844) scale(0.11 -0.11)">
       <use xlink:href="#ArialMT-2b"/>
       <use xlink:href="#ArialMT-32" transform="translate(58.398438 0)"/>
       <use xlink:href="#ArialMT-30" transform="translate(114.013672 0)"/>
       <use xlink:href="#ArialMT-25" transform="translate(169.628906 0)"/>
      </g>
     </g>
    </g>
    <g id="xtick_22">
     <g id="line2d_34">
      <path d="M 717.175828 525.30525 
L 717.175828 290.642625 
" clip-path="url(#pe082be3f50)" style="fill: none; stroke-dasharray: 3.7,1.6; stroke-dashoffset: 0; stroke: #cccccc"/>
     </g>
     <g id="text_49">
      <!-- +40% -->
      <g style="fill: #262626" transform="translate(702.955749 542.678844) scale(0.11 -0.11)">
       <use xlink:href="#ArialMT-2b"/>
       <use xlink:href="#ArialMT-34" transform="translate(58.398438 0)"/>
       <use xlink:href="#ArialMT-30" transform="translate(114.013672 0)"/>
       <use xlink:href="#ArialMT-25" transform="translate(169.628906 0)"/>
      </g>
     </g>
    </g>
    <g id="text_50">
     <!-- Net Benefit (Rescue Rate - Break Rate) -->
     <g style="fill: #262626" transform="translate(313.454438 557.600719) scale(0.12 -0.12)">
      <defs>
       <path id="Arial-BoldMT-4e" d="M 475 0 
L 475 4581 
L 1375 4581 
L 3250 1522 
L 3250 4581 
L 4109 4581 
L 4109 0 
L 3181 0 
L 1334 2988 
L 1334 0 
L 475 0 
z
" transform="scale(0.015625)"/>
       <path id="Arial-BoldMT-6e" d="M 3478 0 
L 2600 0 
L 2600 1694 
Q 2600 2231 2544 2389 
Q 2488 2547 2361 2634 
Q 2234 2722 2056 2722 
Q 1828 2722 1647 2597 
Q 1466 2472 1398 2265 
Q 1331 2059 1331 1503 
L 1331 0 
L 453 0 
L 453 3319 
L 1269 3319 
L 1269 2831 
Q 1703 3394 2363 3394 
Q 2653 3394 2893 3289 
Q 3134 3184 3257 3021 
Q 3381 2859 3429 2653 
Q 3478 2447 3478 2063 
L 3478 0 
z
" transform="scale(0.015625)"/>
       <path id="Arial-BoldMT-66" d="M 75 3319 
L 563 3319 
L 563 3569 
Q 563 3988 652 4194 
Q 741 4400 980 4529 
Q 1219 4659 1584 4659 
Q 1959 4659 2319 4547 
L 2200 3934 
Q 1991 3984 1797 3984 
Q 1606 3984 1523 3895 
Q 1441 3806 1441 3553 
L 1441 3319 
L 2097 3319 
L 2097 2628 
L 1441 2628 
L 1441 0 
L 563 0 
L 563 2628 
L 75 2628 
L 75 3319 
z
" transform="scale(0.015625)"/>
       <path id="Arial-BoldMT-69" d="M 459 3769 
L 459 4581 
L 1338 4581 
L 1338 3769 
L 459 3769 
z
M 459 0 
L 459 3319 
L 1338 3319 
L 1338 0 
L 459 0 
z
" transform="scale(0.015625)"/>
       <path id="Arial-BoldMT-28" d="M 1916 -1347 
L 1313 -1347 
Q 834 -625 584 153 
Q 334 931 334 1659 
Q 334 2563 644 3369 
Q 913 4069 1325 4659 
L 1925 4659 
Q 1497 3713 1336 3048 
Q 1175 2384 1175 1641 
Q 1175 1128 1270 590 
Q 1366 53 1531 -431 
Q 1641 -750 1916 -1347 
z
" transform="scale(0.015625)"/>
       <path id="Arial-BoldMT-2d" d="M 359 1222 
L 359 2100 
L 2084 2100 
L 2084 1222 
L 359 1222 
z
" transform="scale(0.015625)"/>
       <path id="Arial-BoldMT-29" d="M 216 -1347 
Q 475 -791 581 -494 
Q 688 -197 778 190 
Q 869 578 912 926 
Q 956 1275 956 1641 
Q 956 2384 797 3048 
Q 638 3713 209 4659 
L 806 4659 
Q 1278 3988 1539 3234 
Q 1800 2481 1800 1706 
Q 1800 1053 1594 306 
Q 1359 -531 822 -1347 
L 216 -1347 
z
" transform="scale(0.015625)"/>
      </defs>
      <use xlink:href="#Arial-BoldMT-4e"/>
      <use xlink:href="#Arial-BoldMT-65" transform="translate(72.216797 0)"/>
      <use xlink:href="#Arial-BoldMT-74" transform="translate(127.832031 0)"/>
      <use xlink:href="#Arial-BoldMT-20" transform="translate(161.132812 0)"/>
      <use xlink:href="#Arial-BoldMT-42" transform="translate(188.916016 0)"/>
      <use xlink:href="#Arial-BoldMT-65" transform="translate(261.132812 0)"/>
      <use xlink:href="#Arial-BoldMT-6e" transform="translate(316.748047 0)"/>
      <use xlink:href="#Arial-BoldMT-65" transform="translate(377.832031 0)"/>
      <use xlink:href="#Arial-BoldMT-66" transform="translate(433.447266 0)"/>
      <use xlink:href="#Arial-BoldMT-69" transform="translate(466.748047 0)"/>
      <use xlink:href="#Arial-BoldMT-74" transform="translate(494.53125 0)"/>
      <use xlink:href="#Arial-BoldMT-20" transform="translate(527.832031 0)"/>
      <use xlink:href="#Arial-BoldMT-28" transform="translate(555.615234 0)"/>
      <use xlink:href="#Arial-BoldMT-52" transform="translate(588.916016 0)"/>
      <use xlink:href="#Arial-BoldMT-65" transform="translate(661.132812 0)"/>
      <use xlink:href="#Arial-BoldMT-73" transform="translate(716.748047 0)"/>
      <use xlink:href="#Arial-BoldMT-63" transform="translate(772.363281 0)"/>
      <use xlink:href="#Arial-BoldMT-75" transform="translate(827.978516 0)"/>
      <use xlink:href="#Arial-BoldMT-65" transform="translate(889.0625 0)"/>
      <use xlink:href="#Arial-BoldMT-20" transform="translate(944.677734 0)"/>
      <use xlink:href="#Arial-BoldMT-52" transform="translate(972.460938 0)"/>
      <use xlink:href="#Arial-BoldMT-61" transform="translate(1044.677734 0)"/>
      <use xlink:href="#Arial-BoldMT-74" transform="translate(1100.292969 0)"/>
      <use xlink:href="#Arial-BoldMT-65" transform="translate(1133.59375 0)"/>
      <use xlink:href="#Arial-BoldMT-20" transform="translate(1189.208984 0)"/>
      <use xlink:href="#Arial-BoldMT-2d" transform="translate(1216.992188 0)"/>
      <use xlink:href="#Arial-BoldMT-20" transform="translate(1250.292969 0)"/>
      <use xlink:href="#Arial-BoldMT-42" transform="translate(1278.076172 0)"/>
      <use xlink:href="#Arial-BoldMT-72" transform="translate(1350.292969 0)"/>
      <use xlink:href="#Arial-BoldMT-65" transform="translate(1389.208984 0)"/>
      <use xlink:href="#Arial-BoldMT-61" transform="translate(1444.824219 0)"/>
      <use xlink:href="#Arial-BoldMT-6b" transform="translate(1500.439453 0)"/>
      <use xlink:href="#Arial-BoldMT-20" transform="translate(1556.054688 0)"/>
      <use xlink:href="#Arial-BoldMT-52" transform="translate(1583.837891 0)"/>
      <use xlink:href="#Arial-BoldMT-61" transform="translate(1656.054688 0)"/>
      <use xlink:href="#Arial-BoldMT-74" transform="translate(1711.669922 0)"/>
      <use xlink:href="#Arial-BoldMT-65" transform="translate(1744.970703 0)"/>
      <use xlink:href="#Arial-BoldMT-29" transform="translate(1800.585938 0)"/>
     </g>
    </g>
   </g>
   <g id="matplotlib.axis_6">
    <g id="ytick_13">
     <g id="text_51">
      <!-- greedy -->
      <g style="fill: #262626" transform="translate(53.877969 314.134641) scale(0.11 -0.11)">
       <use xlink:href="#ArialMT-67"/>
       <use xlink:href="#ArialMT-72" transform="translate(55.615234 0)"/>
       <use xlink:href="#ArialMT-65" transform="translate(88.916016 0)"/>
       <use xlink:href="#ArialMT-65" transform="translate(144.53125 0)"/>
       <use xlink:href="#ArialMT-64" transform="translate(200.146484 0)"/>
       <use xlink:href="#ArialMT-79" transform="translate(255.761719 0)"/>
      </g>
     </g>
    </g>
    <g id="ytick_14">
     <g id="text_52">
      <!-- rollout -->
      <g style="fill: #262626" transform="translate(57.550938 353.245078) scale(0.11 -0.11)">
       <use xlink:href="#ArialMT-72"/>
       <use xlink:href="#ArialMT-6f" transform="translate(33.300781 0)"/>
       <use xlink:href="#ArialMT-6c" transform="translate(88.916016 0)"/>
       <use xlink:href="#ArialMT-6c" transform="translate(111.132812 0)"/>
       <use xlink:href="#ArialMT-6f" transform="translate(133.349609 0)"/>
       <use xlink:href="#ArialMT-75" transform="translate(188.964844 0)"/>
       <use xlink:href="#ArialMT-74" transform="translate(244.580078 0)"/>
      </g>
     </g>
    </g>
    <g id="ytick_15">
     <g id="text_53">
      <!-- risk-averse -->
      <g style="fill: #262626" transform="translate(33.725625 387.325594) scale(0.11 -0.11)">
       <use xlink:href="#ArialMT-72"/>
       <use xlink:href="#ArialMT-69" transform="translate(33.300781 0)"/>
       <use xlink:href="#ArialMT-73" transform="translate(55.517578 0)"/>
       <use xlink:href="#ArialMT-6b" transform="translate(105.517578 0)"/>
       <use xlink:href="#ArialMT-2d" transform="translate(155.517578 0)"/>
       <use xlink:href="#ArialMT-61" transform="translate(188.818359 0)"/>
       <use xlink:href="#ArialMT-76" transform="translate(244.433594 0)"/>
       <use xlink:href="#ArialMT-65" transform="translate(294.433594 0)"/>
       <use xlink:href="#ArialMT-72" transform="translate(350.048828 0)"/>
       <use xlink:href="#ArialMT-73" transform="translate(383.349609 0)"/>
       <use xlink:href="#ArialMT-65" transform="translate(433.349609 0)"/>
      </g>
      <!-- greedy -->
      <g style="fill: #262626" transform="translate(53.877969 398.960156) scale(0.11 -0.11)">
       <use xlink:href="#ArialMT-67"/>
       <use xlink:href="#ArialMT-72" transform="translate(55.615234 0)"/>
       <use xlink:href="#ArialMT-65" transform="translate(88.916016 0)"/>
       <use xlink:href="#ArialMT-65" transform="translate(144.53125 0)"/>
       <use xlink:href="#ArialMT-64" transform="translate(200.146484 0)"/>
       <use xlink:href="#ArialMT-79" transform="translate(255.761719 0)"/>
      </g>
     </g>
    </g>
    <g id="ytick_16">
     <g id="text_54">
      <!-- 2-step -->
      <g style="fill: #262626" transform="translate(56.939063 426.452359) scale(0.11 -0.11)">
       <use xlink:href="#ArialMT-32"/>
       <use xlink:href="#ArialMT-2d" transform="translate(55.615234 0)"/>
       <use xlink:href="#ArialMT-73" transform="translate(88.916016 0)"/>
       <use xlink:href="#ArialMT-74" transform="translate(138.916016 0)"/>
       <use xlink:href="#ArialMT-65" transform="translate(166.699219 0)"/>
       <use xlink:href="#ArialMT-70" transform="translate(222.314453 0)"/>
      </g>
      <!-- greedy -->
      <g style="fill: #262626" transform="translate(53.877969 438.086922) scale(0.11 -0.11)">
       <use xlink:href="#ArialMT-67"/>
       <use xlink:href="#ArialMT-72" transform="translate(55.615234 0)"/>
       <use xlink:href="#ArialMT-65" transform="translate(88.916016 0)"/>
       <use xlink:href="#ArialMT-65" transform="translate(144.53125 0)"/>
       <use xlink:href="#ArialMT-64" transform="translate(200.146484 0)"/>
       <use xlink:href="#ArialMT-79" transform="translate(255.761719 0)"/>
      </g>
     </g>
    </g>
    <g id="ytick_17">
     <g id="text_55">
      <!-- prob. greedy -->
      <g style="fill: #262626" transform="translate(25.752344 470.576391) scale(0.11 -0.11)">
       <use xlink:href="#ArialMT-70"/>
       <use xlink:href="#ArialMT-72" transform="translate(55.615234 0)"/>
       <use xlink:href="#ArialMT-6f" transform="translate(88.916016 0)"/>
       <use xlink:href="#ArialMT-62" transform="translate(144.53125 0)"/>
       <use xlink:href="#ArialMT-2e" transform="translate(200.146484 0)"/>
       <use xlink:href="#ArialMT-20" transform="translate(227.929688 0)"/>
       <use xlink:href="#ArialMT-67" transform="translate(255.712891 0)"/>
       <use xlink:href="#ArialMT-72" transform="translate(311.328125 0)"/>
       <use xlink:href="#ArialMT-65" transform="translate(344.628906 0)"/>
       <use xlink:href="#ArialMT-65" transform="translate(400.244141 0)"/>
       <use xlink:href="#ArialMT-64" transform="translate(455.859375 0)"/>
       <use xlink:href="#ArialMT-79" transform="translate(511.474609 0)"/>
      </g>
     </g>
    </g>
    <g id="ytick_18">
     <g id="text_56">
      <!-- LA -->
      <g style="fill: #262626" transform="translate(74.054375 504.656906) scale(0.11 -0.11)">
       <use xlink:href="#ArialMT-4c"/>
       <use xlink:href="#ArialMT-41" transform="translate(55.615234 0)"/>
      </g>
      <!-- replanning -->
      <g style="fill: #262626" transform="translate(36.13875 516.291469) scale(0.11 -0.11)">
       <use xlink:href="#ArialMT-72"/>
       <use xlink:href="#ArialMT-65" transform="translate(33.300781 0)"/>
       <use xlink:href="#ArialMT-70" transform="translate(88.916016 0)"/>
       <use xlink:href="#ArialMT-6c" transform="translate(144.53125 0)"/>
       <use xlink:href="#ArialMT-61" transform="translate(166.748047 0)"/>
       <use xlink:href="#ArialMT-6e" transform="translate(222.363281 0)"/>
       <use xlink:href="#ArialMT-6e" transform="translate(277.978516 0)"/>
       <use xlink:href="#ArialMT-69" transform="translate(333.59375 0)"/>
       <use xlink:href="#ArialMT-6e" transform="translate(355.810547 0)"/>
       <use xlink:href="#ArialMT-67" transform="translate(411.425781 0)"/>
      </g>
     </g>
    </g>
    <g id="text_57">
     <!-- Strategy -->
     <g style="fill: #262626" transform="translate(19.226719 431.981437) rotate(-90) scale(0.12 -0.12)">
      <use xlink:href="#Arial-BoldMT-53"/>
      <use xlink:href="#Arial-BoldMT-74" transform="translate(66.699219 0)"/>
      <use xlink:href="#Arial-BoldMT-72" transform="translate(100 0)"/>
      <use xlink:href="#Arial-BoldMT-61" transform="translate(138.916016 0)"/>
      <use xlink:href="#Arial-BoldMT-74" transform="translate(194.53125 0)"/>
      <use xlink:href="#Arial-BoldMT-65" transform="translate(227.832031 0)"/>
      <use xlink:href="#Arial-BoldMT-67" transform="translate(283.447266 0)"/>
      <use xlink:href="#Arial-BoldMT-79" transform="translate(344.53125 0)"/>
     </g>
    </g>
   </g>
   <g id="patch_21">
    <path d="M 556.033571 294.553669 
L 685.312524 294.553669 
L 685.312524 325.842019 
L 556.033571 325.842019 
z
" clip-path="url(#pe082be3f50)" style="fill: #107010; opacity: 0.7; stroke: #ffffff; stroke-linejoin: miter"/>
   </g>
   <g id="patch_22">
    <path d="M 556.033571 333.664106 
L 684.108094 333.664106 
L 684.108094 364.952456 
L 556.033571 364.952456 
z
" clip-path="url(#pe082be3f50)" style="fill: #107010; opacity: 0.7; stroke: #ffffff; stroke-linejoin: miter"/>
   </g>
   <g id="patch_23">
    <path d="M 556.033571 372.774544 
L 681.514281 372.774544 
L 681.514281 404.062894 
L 556.033571 404.062894 
z
" clip-path="url(#pe082be3f50)" style="fill: #107010; opacity: 0.7; stroke: #ffffff; stroke-linejoin: miter"/>
   </g>
   <g id="patch_24">
    <path d="M 556.033571 411.884981 
L 636.544218 411.884981 
L 636.544218 443.173331 
L 556.033571 443.173331 
z
" clip-path="url(#pe082be3f50)" style="fill: #107010; opacity: 0.7; stroke: #ffffff; stroke-linejoin: miter"/>
   </g>
   <g id="patch_25">
    <path d="M 556.033571 450.995419 
L 562.852667 450.995419 
L 562.852667 482.283769 
L 556.033571 482.283769 
z
" clip-path="url(#pe082be3f50)" style="fill: #107010; opacity: 0.7; stroke: #ffffff; stroke-linejoin: miter"/>
   </g>
   <g id="patch_26">
    <path d="M 556.033571 490.105856 
L 156.881553 490.105856 
L 156.881553 521.394206 
L 556.033571 521.394206 
z
" clip-path="url(#pe082be3f50)" style="fill: #df2020; opacity: 0.7; stroke: #ffffff; stroke-linejoin: miter"/>
   </g>
   <g id="line2d_35">
    <path clip-path="url(#pe082be3f50)" style="fill: none; stroke: #424242; stroke-width: 2.25; stroke-linecap: round"/>
   </g>
   <g id="line2d_36">
    <path clip-path="url(#pe082be3f50)" style="fill: none; stroke: #424242; stroke-width: 2.25; stroke-linecap: round"/>
   </g>
   <g id="line2d_37">
    <path clip-path="url(#pe082be3f50)" style="fill: none; stroke: #424242; stroke-width: 2.25; stroke-linecap: round"/>
   </g>
   <g id="line2d_38">
    <path clip-path="url(#pe082be3f50)" style="fill: none; stroke: #424242; stroke-width: 2.25; stroke-linecap: round"/>
   </g>
   <g id="line2d_39">
    <path clip-path="url(#pe082be3f50)" style="fill: none; stroke: #424242; stroke-width: 2.25; stroke-linecap: round"/>
   </g>
   <g id="line2d_40">
    <path clip-path="url(#pe082be3f50)" style="fill: none; stroke: #424242; stroke-width: 2.25; stroke-linecap: round"/>
   </g>
   <g id="line2d_41">
    <path d="M 556.033571 525.30525 
L 556.033571 290.642625 
" clip-path="url(#pe082be3f50)" style="fill: none; stroke: #000000; stroke-linecap: round"/>
   </g>
   <g id="patch_27">
    <path d="M 97.00875 525.30525 
L 97.00875 290.642625 
" style="fill: none; stroke: #cccccc; stroke-width: 1.25; stroke-linejoin: miter; stroke-linecap: square"/>
   </g>
   <g id="patch_28">
    <path d="M 97.00875 525.30525 
L 749.952 525.30525 
" style="fill: none; stroke: #cccccc; stroke-width: 1.25; stroke-linejoin: miter; stroke-linecap: square"/>
   </g>
   <g id="text_58">
    <!-- +32.1% -->
    <g style="fill: #262626" transform="translate(694.312524 312.783) scale(0.1 -0.1)">
     <use xlink:href="#ArialMT-2b"/>
     <use xlink:href="#ArialMT-33" transform="translate(58.398438 0)"/>
     <use xlink:href="#ArialMT-32" transform="translate(114.013672 0)"/>
     <use xlink:href="#ArialMT-2e" transform="translate(169.628906 0)"/>
     <use xlink:href="#ArialMT-31" transform="translate(197.412109 0)"/>
     <use xlink:href="#ArialMT-25" transform="translate(253.027344 0)"/>
    </g>
   </g>
   <g id="text_59">
    <!-- +31.8% -->
    <g style="fill: #262626" transform="translate(693.108094 351.893438) scale(0.1 -0.1)">
     <use xlink:href="#ArialMT-2b"/>
     <use xlink:href="#ArialMT-33" transform="translate(58.398438 0)"/>
     <use xlink:href="#ArialMT-31" transform="translate(114.013672 0)"/>
     <use xlink:href="#ArialMT-2e" transform="translate(169.628906 0)"/>
     <use xlink:href="#ArialMT-38" transform="translate(197.412109 0)"/>
     <use xlink:href="#ArialMT-25" transform="translate(253.027344 0)"/>
    </g>
   </g>
   <g id="text_60">
    <!-- +31.1% -->
    <g style="fill: #262626" transform="translate(690.514281 391.003875) scale(0.1 -0.1)">
     <use xlink:href="#ArialMT-2b"/>
     <use xlink:href="#ArialMT-33" transform="translate(58.398438 0)"/>
     <use xlink:href="#ArialMT-31" transform="translate(114.013672 0)"/>
     <use xlink:href="#ArialMT-2e" transform="translate(169.628906 0)"/>
     <use xlink:href="#ArialMT-31" transform="translate(197.412109 0)"/>
     <use xlink:href="#ArialMT-25" transform="translate(253.027344 0)"/>
    </g>
   </g>
   <g id="text_61">
    <!-- +20.0% -->
    <g style="fill: #262626" transform="translate(645.544218 430.114312) scale(0.1 -0.1)">
     <use xlink:href="#ArialMT-2b"/>
     <use xlink:href="#ArialMT-32" transform="translate(58.398438 0)"/>
     <use xlink:href="#ArialMT-30" transform="translate(114.013672 0)"/>
     <use xlink:href="#ArialMT-2e" transform="translate(169.628906 0)"/>
     <use xlink:href="#ArialMT-30" transform="translate(197.412109 0)"/>
     <use xlink:href="#ArialMT-25" transform="translate(253.027344 0)"/>
    </g>
   </g>
   <g id="text_62">
    <!-- +1.7% -->
    <g style="fill: #262626" transform="translate(571.852667 469.22475) scale(0.1 -0.1)">
     <use xlink:href="#ArialMT-2b"/>
     <use xlink:href="#ArialMT-31" transform="translate(58.398438 0)"/>
     <use xlink:href="#ArialMT-2e" transform="translate(114.013672 0)"/>
     <use xlink:href="#ArialMT-37" transform="translate(141.796875 0)"/>
     <use xlink:href="#ArialMT-25" transform="translate(197.412109 0)"/>
    </g>
   </g>
   <g id="text_63">
    <!-- -99.1% -->
    <g style="fill: #262626" transform="translate(116.19874 508.335187) scale(0.1 -0.1)">
     <use xlink:href="#ArialMT-2d"/>
     <use xlink:href="#ArialMT-39" transform="translate(33.300781 0)"/>
     <use xlink:href="#ArialMT-39" transform="translate(88.916016 0)"/>
     <use xlink:href="#ArialMT-2e" transform="translate(144.53125 0)"/>
     <use xlink:href="#ArialMT-31" transform="translate(172.314453 0)"/>
     <use xlink:href="#ArialMT-25" transform="translate(227.929688 0)"/>
    </g>
   </g>
  </g>
 </g>
 <defs>
  <clipPath id="p96e99b7395">
   <rect x="97.00875" y="10.8" width="285.406625" height="234.662625"/>
  </clipPath>
  <clipPath id="pda2ed351e9">
   <rect x="464.545375" y="10.8" width="285.406625" height="234.662625"/>
  </clipPath>
  <clipPath id="pe082be3f50">
   <rect x="97.00875" y="290.642625" width="652.94325" height="234.662625"/>
  </clipPath>
 </defs>
</svg>
