<?xml version="1.0" encoding="utf-8" standalone="no"?>
<!DOCTYPE svg PUBLIC "-//W3C//DTD SVG 1.1//EN"
  "http://www.w3.org/Graphics/SVG/1.1/DTD/svg11.dtd">
<svg xmlns:xlink="http://www.w3.org/1999/xlink" width="633.96pt" height="475.47pt" viewBox="0 0 633.96 475.47" xmlns="http://www.w3.org/2000/svg" version="1.1">
 <metadata>
  <rdf:RDF xmlns:dc="http://purl.org/dc/elements/1.1/" xmlns:cc="http://creativecommons.org/ns#" xmlns:rdf="http://www.w3.org/1999/02/22-rdf-syntax-ns#">
   <cc:Work>
    <dc:type rdf:resource="http://purl.org/dc/dcmitype/StillImage"/>
    <dc:date>2026-01-21T10:50:18.579023</dc:date>
    <dc:format>image/svg+xml</dc:format>
    <dc:creator>
     <cc:Agent>
      <dc:title>Matplotlib v3.10.8, https://matplotlib.org/</dc:title>
     </cc:Agent>
    </dc:creator>
   </cc:Work>
  </rdf:RDF>
 </metadata>
 <defs>
  <style type="text/css">*{stroke-linejoin: round; stroke-linecap: butt}</style>
 </defs>
 <g id="figure_1">
  <g id="patch_1">
   <path d="M 0 475.47 
L 633.96 475.47 
L 633.96 0 
L 0 0 
z
" style="fill: #ffffff"/>
  </g>
  <g id="axes_1">
   <g id="patch_2">
    <path d="M 63.27 423.768937 
L 623.16 423.768937 
L 623.16 10.8 
L 63.27 10.8 
z
" style="fill: #ffffff"/>
   </g>
   <g id="patch_3">
    <path d="M 63.27 173.457202 
L 288.204634 173.457202 
L 288.204634 10.8 
L 63.27 10.8 
z
" clip-path="url(#pbffca30507)" style="fill: #008000; opacity: 0.1; stroke: #008000; stroke-linejoin: miter"/>
   </g>
   <g id="patch_4">
    <path d="M 288.204634 173.457202 
L 623.16 173.457202 
L 623.16 10.8 
L 288.204634 10.8 
z
" clip-path="url(#pbffca30507)" style="fill: #ffff00; opacity: 0.1; stroke: #ffff00; stroke-linejoin: miter"/>
   </g>
   <g id="patch_5">
    <path d="M 63.27 423.768937 
L 288.204634 423.768937 
L 288.204634 173.457202 
L 63.27 173.457202 
z
" clip-path="url(#pbffca30507)" style="fill: #ffff00; opacity: 0.1; stroke: #ffff00; stroke-linejoin: miter"/>
   </g>
   <g id="patch_6">
    <path d="M 288.204634 423.768937 
L 623.16 423.768937 
L 623.16 173.457202 
L 288.204634 173.457202 
z
" clip-path="url(#pbffca30507)" style="fill: #ff0000; opacity: 0.1; stroke: #ff0000; stroke-linejoin: miter"/>
   </g>
   <g id="matplotlib.axis_1">
    <g id="xtick_1">
     <g id="line2d_1">
      <path d="M 83.082926 423.768937 
L 83.082926 10.8 
" clip-path="url(#pbffca30507)" style="fill: none; stroke-dasharray: 3.7,1.6; stroke-dashoffset: 0; stroke: #cccccc"/>
     </g>
     <g id="text_1">
      <!-- $\mathdefault{10^{1}}$ -->
      <g style="fill: #262626" transform="translate(74.447926 444.612687) scale(0.11 -0.11)">
       <defs>
        <path id="ArialMT-31" d="M 2384 0 
L 1822 0 
L 1822 3584 
Q 1619 3391 1289 3197 
Q 959 3003 697 2906 
L 697 3450 
Q 1169 3672 1522 3987 
Q 1875 4303 2022 4600 
L 2384 4600 
L 2384 0 
z
" transform="scale(0.015625)"/>
        <path id="ArialMT-30" d="M 266 2259 
Q 266 3072 433 3567 
Q 600 4063 929 4331 
Q 1259 4600 1759 4600 
Q 2128 4600 2406 4451 
Q 2684 4303 2865 4023 
Q 3047 3744 3150 3342 
Q 3253 2941 3253 2259 
Q 3253 1453 3087 958 
Q 2922 463 2592 192 
Q 2263 -78 1759 -78 
Q 1097 -78 719 397 
Q 266 969 266 2259 
z
M 844 2259 
Q 844 1131 1108 757 
Q 1372 384 1759 384 
Q 2147 384 2411 759 
Q 2675 1134 2675 2259 
Q 2675 3391 2411 3762 
Q 2147 4134 1753 4134 
Q 1366 4134 1134 3806 
Q 844 3388 844 2259 
z
" transform="scale(0.015625)"/>
       </defs>
       <use xlink:href="#ArialMT-31" transform="translate(0 0.99375)"/>
       <use xlink:href="#ArialMT-30" transform="translate(55.615234 0.99375)"/>
       <use xlink:href="#ArialMT-31" transform="translate(112.972813 70.6875) scale(0.7)"/>
      </g>
     </g>
    </g>
    <g id="xtick_2">
     <g id="line2d_2">
      <path d="M 219.35639 423.768937 
L 219.35639 10.8 
" clip-path="url(#pbffca30507)" style="fill: none; stroke-dasharray: 3.7,1.6; stroke-dashoffset: 0; stroke: #cccccc"/>
     </g>
     <g id="text_2">
      <!-- $\mathdefault{10^{2}}$ -->
      <g style="fill: #262626" transform="translate(210.72139 444.612687) scale(0.11 -0.11)">
       <defs>
        <path id="ArialMT-32" d="M 3222 541 
L 3222 0 
L 194 0 
Q 188 203 259 391 
Q 375 700 629 1000 
Q 884 1300 1366 1694 
Q 2113 2306 2375 2664 
Q 2638 3022 2638 3341 
Q 2638 3675 2398 3904 
Q 2159 4134 1775 4134 
Q 1369 4134 1125 3890 
Q 881 3647 878 3216 
L 300 3275 
Q 359 3922 746 4261 
Q 1134 4600 1788 4600 
Q 2447 4600 2831 4234 
Q 3216 3869 3216 3328 
Q 3216 3053 3103 2787 
Q 2991 2522 2730 2228 
Q 2469 1934 1863 1422 
Q 1356 997 1212 845 
Q 1069 694 975 541 
L 3222 541 
z
" transform="scale(0.015625)"/>
       </defs>
       <use xlink:href="#ArialMT-31" transform="translate(0 0.99375)"/>
       <use xlink:href="#ArialMT-30" transform="translate(55.615234 0.99375)"/>
       <use xlink:href="#ArialMT-32" transform="translate(112.972813 70.6875) scale(0.7)"/>
      </g>
     </g>
    </g>
    <g id="xtick_3">
     <g id="line2d_3">
      <path d="M 355.629854 423.768937 
L 355.629854 10.8 
" clip-path="url(#pbffca30507)" style="fill: none; stroke-dasharray: 3.7,1.6; stroke-dashoffset: 0; stroke: #cccccc"/>
     </g>
     <g id="text_3">
      <!-- $\mathdefault{10^{3}}$ -->
      <g style="fill: #262626" transform="translate(346.994854 444.612687) scale(0.11 -0.11)">
       <defs>
        <path id="ArialMT-33" d="M 269 1209 
L 831 1284 
Q 928 806 1161 595 
Q 1394 384 1728 384 
Q 2125 384 2398 659 
Q 2672 934 2672 1341 
Q 2672 1728 2419 1979 
Q 2166 2231 1775 2231 
Q 1616 2231 1378 2169 
L 1441 2663 
Q 1497 2656 1531 2656 
Q 1891 2656 2178 2843 
Q 2466 3031 2466 3422 
Q 2466 3731 2256 3934 
Q 2047 4138 1716 4138 
Q 1388 4138 1169 3931 
Q 950 3725 888 3313 
L 325 3413 
Q 428 3978 793 4289 
Q 1159 4600 1703 4600 
Q 2078 4600 2393 4439 
Q 2709 4278 2876 4000 
Q 3044 3722 3044 3409 
Q 3044 3113 2884 2869 
Q 2725 2625 2413 2481 
Q 2819 2388 3044 2092 
Q 3269 1797 3269 1353 
Q 3269 753 2831 336 
Q 2394 -81 1725 -81 
Q 1122 -81 723 278 
Q 325 638 269 1209 
z
" transform="scale(0.015625)"/>
       </defs>
       <use xlink:href="#ArialMT-31" transform="translate(0 0.99375)"/>
       <use xlink:href="#ArialMT-30" transform="translate(55.615234 0.99375)"/>
       <use xlink:href="#ArialMT-33" transform="translate(112.972813 70.6875) scale(0.7)"/>
      </g>
     </g>
    </g>
    <g id="xtick_4">
     <g id="line2d_4">
      <path d="M 491.903318 423.768937 
L 491.903318 10.8 
" clip-path="url(#pbffca30507)" style="fill: none; stroke-dasharray: 3.7,1.6; stroke-dashoffset: 0; stroke: #cccccc"/>
     </g>
     <g id="text_4">
      <!-- $\mathdefault{10^{4}}$ -->
      <g style="fill: #262626" transform="translate(483.268318 444.502687) scale(0.11 -0.11)">
       <defs>
        <path id="ArialMT-34" d="M 2069 0 
L 2069 1097 
L 81 1097 
L 81 1613 
L 2172 4581 
L 2631 4581 
L 2631 1613 
L 3250 1613 
L 3250 1097 
L 2631 1097 
L 2631 0 
L 2069 0 
z
M 2069 1613 
L 2069 3678 
L 634 1613 
L 2069 1613 
z
" transform="scale(0.015625)"/>
       </defs>
       <use xlink:href="#ArialMT-31" transform="translate(0 0.201563)"/>
       <use xlink:href="#ArialMT-30" transform="translate(55.615234 0.201563)"/>
       <use xlink:href="#ArialMT-34" transform="translate(112.972813 69.895313) scale(0.7)"/>
      </g>
     </g>
    </g>
    <g id="xtick_5"/>
    <g id="xtick_6"/>
    <g id="xtick_7"/>
    <g id="xtick_8"/>
    <g id="xtick_9"/>
    <g id="xtick_10"/>
    <g id="xtick_11"/>
    <g id="xtick_12"/>
    <g id="xtick_13"/>
    <g id="xtick_14"/>
    <g id="xtick_15"/>
    <g id="xtick_16"/>
    <g id="xtick_17"/>
    <g id="xtick_18"/>
    <g id="xtick_19"/>
    <g id="xtick_20"/>
    <g id="xtick_21"/>
    <g id="xtick_22"/>
    <g id="xtick_23"/>
    <g id="xtick_24"/>
    <g id="xtick_25"/>
    <g id="xtick_26"/>
    <g id="xtick_27"/>
    <g id="xtick_28"/>
    <g id="xtick_29"/>
    <g id="xtick_30"/>
    <g id="xtick_31"/>
    <g id="xtick_32"/>
    <g id="xtick_33"/>
    <g id="xtick_34"/>
    <g id="xtick_35"/>
    <g id="xtick_36"/>
    <g id="xtick_37"/>
    <g id="xtick_38"/>
    <g id="text_5">
     <!-- Time per action (μs) -->
     <g style="fill: #262626" transform="translate(286.30875 459.534562) scale(0.12 -0.12)">
      <defs>
       <path id="Arial-BoldMT-54" d="M 1497 0 
L 1497 3806 
L 138 3806 
L 138 4581 
L 3778 4581 
L 3778 3806 
L 2422 3806 
L 2422 0 
L 1497 0 
z
" transform="scale(0.015625)"/>
       <path id="Arial-BoldMT-69" d="M 459 3769 
L 459 4581 
L 1338 4581 
L 1338 3769 
L 459 3769 
z
M 459 0 
L 459 3319 
L 1338 3319 
L 1338 0 
L 459 0 
z
" transform="scale(0.015625)"/>
       <path id="Arial-BoldMT-6d" d="M 394 3319 
L 1203 3319 
L 1203 2866 
Q 1638 3394 2238 3394 
Q 2556 3394 2790 3262 
Q 3025 3131 3175 2866 
Q 3394 3131 3647 3262 
Q 3900 3394 4188 3394 
Q 4553 3394 4806 3245 
Q 5059 3097 5184 2809 
Q 5275 2597 5275 2122 
L 5275 0 
L 4397 0 
L 4397 1897 
Q 4397 2391 4306 2534 
Q 4184 2722 3931 2722 
Q 3747 2722 3584 2609 
Q 3422 2497 3350 2280 
Q 3278 2063 3278 1594 
L 3278 0 
L 2400 0 
L 2400 1819 
Q 2400 2303 2353 2443 
Q 2306 2584 2207 2653 
Q 2109 2722 1941 2722 
Q 1738 2722 1575 2612 
Q 1413 2503 1342 2297 
Q 1272 2091 1272 1613 
L 1272 0 
L 394 0 
L 394 3319 
z
" transform="scale(0.015625)"/>
       <path id="Arial-BoldMT-65" d="M 2381 1056 
L 3256 909 
Q 3088 428 2723 176 
Q 2359 -75 1813 -75 
Q 947 -75 531 491 
Q 203 944 203 1634 
Q 203 2459 634 2926 
Q 1066 3394 1725 3394 
Q 2466 3394 2894 2905 
Q 3322 2416 3303 1406 
L 1103 1406 
Q 1113 1016 1316 798 
Q 1519 581 1822 581 
Q 2028 581 2168 693 
Q 2309 806 2381 1056 
z
M 2431 1944 
Q 2422 2325 2234 2523 
Q 2047 2722 1778 2722 
Q 1491 2722 1303 2513 
Q 1116 2303 1119 1944 
L 2431 1944 
z
" transform="scale(0.015625)"/>
       <path id="Arial-BoldMT-20" transform="scale(0.015625)"/>
       <path id="Arial-BoldMT-70" d="M 434 3319 
L 1253 3319 
L 1253 2831 
Q 1413 3081 1684 3237 
Q 1956 3394 2288 3394 
Q 2866 3394 3269 2941 
Q 3672 2488 3672 1678 
Q 3672 847 3265 386 
Q 2859 -75 2281 -75 
Q 2006 -75 1782 34 
Q 1559 144 1313 409 
L 1313 -1263 
L 434 -1263 
L 434 3319 
z
M 1303 1716 
Q 1303 1156 1525 889 
Q 1747 622 2066 622 
Q 2372 622 2575 867 
Q 2778 1113 2778 1672 
Q 2778 2194 2568 2447 
Q 2359 2700 2050 2700 
Q 1728 2700 1515 2451 
Q 1303 2203 1303 1716 
z
" transform="scale(0.015625)"/>
       <path id="Arial-BoldMT-72" d="M 1300 0 
L 422 0 
L 422 3319 
L 1238 3319 
L 1238 2847 
Q 1447 3181 1614 3287 
Q 1781 3394 1994 3394 
Q 2294 3394 2572 3228 
L 2300 2463 
Q 2078 2606 1888 2606 
Q 1703 2606 1575 2504 
Q 1447 2403 1373 2137 
Q 1300 1872 1300 1025 
L 1300 0 
z
" transform="scale(0.015625)"/>
       <path id="Arial-BoldMT-61" d="M 1116 2306 
L 319 2450 
Q 453 2931 781 3162 
Q 1109 3394 1756 3394 
Q 2344 3394 2631 3255 
Q 2919 3116 3036 2902 
Q 3153 2688 3153 2116 
L 3144 1091 
Q 3144 653 3186 445 
Q 3228 238 3344 0 
L 2475 0 
Q 2441 88 2391 259 
Q 2369 338 2359 363 
Q 2134 144 1878 34 
Q 1622 -75 1331 -75 
Q 819 -75 523 203 
Q 228 481 228 906 
Q 228 1188 362 1408 
Q 497 1628 739 1745 
Q 981 1863 1438 1950 
Q 2053 2066 2291 2166 
L 2291 2253 
Q 2291 2506 2166 2614 
Q 2041 2722 1694 2722 
Q 1459 2722 1328 2630 
Q 1197 2538 1116 2306 
z
M 2291 1594 
Q 2122 1538 1756 1459 
Q 1391 1381 1278 1306 
Q 1106 1184 1106 997 
Q 1106 813 1243 678 
Q 1381 544 1594 544 
Q 1831 544 2047 700 
Q 2206 819 2256 991 
Q 2291 1103 2291 1419 
L 2291 1594 
z
" transform="scale(0.015625)"/>
       <path id="Arial-BoldMT-63" d="M 3353 2338 
L 2488 2181 
Q 2444 2441 2289 2572 
Q 2134 2703 1888 2703 
Q 1559 2703 1364 2476 
Q 1169 2250 1169 1719 
Q 1169 1128 1367 884 
Q 1566 641 1900 641 
Q 2150 641 2309 783 
Q 2469 925 2534 1272 
L 3397 1125 
Q 3263 531 2881 228 
Q 2500 -75 1859 -75 
Q 1131 -75 698 384 
Q 266 844 266 1656 
Q 266 2478 700 2936 
Q 1134 3394 1875 3394 
Q 2481 3394 2839 3133 
Q 3197 2872 3353 2338 
z
" transform="scale(0.015625)"/>
       <path id="Arial-BoldMT-74" d="M 1981 3319 
L 1981 2619 
L 1381 2619 
L 1381 1281 
Q 1381 875 1398 808 
Q 1416 741 1477 697 
Q 1538 653 1625 653 
Q 1747 653 1978 738 
L 2053 56 
Q 1747 -75 1359 -75 
Q 1122 -75 931 4 
Q 741 84 652 211 
Q 563 338 528 553 
Q 500 706 500 1172 
L 500 2619 
L 97 2619 
L 97 3319 
L 500 3319 
L 500 3978 
L 1381 4491 
L 1381 3319 
L 1981 3319 
z
" transform="scale(0.015625)"/>
       <path id="Arial-BoldMT-6f" d="M 256 1706 
Q 256 2144 472 2553 
Q 688 2963 1083 3178 
Q 1478 3394 1966 3394 
Q 2719 3394 3200 2905 
Q 3681 2416 3681 1669 
Q 3681 916 3195 420 
Q 2709 -75 1972 -75 
Q 1516 -75 1102 131 
Q 688 338 472 736 
Q 256 1134 256 1706 
z
M 1156 1659 
Q 1156 1166 1390 903 
Q 1625 641 1969 641 
Q 2313 641 2545 903 
Q 2778 1166 2778 1666 
Q 2778 2153 2545 2415 
Q 2313 2678 1969 2678 
Q 1625 2678 1390 2415 
Q 1156 2153 1156 1659 
z
" transform="scale(0.015625)"/>
       <path id="Arial-BoldMT-6e" d="M 3478 0 
L 2600 0 
L 2600 1694 
Q 2600 2231 2544 2389 
Q 2488 2547 2361 2634 
Q 2234 2722 2056 2722 
Q 1828 2722 1647 2597 
Q 1466 2472 1398 2265 
Q 1331 2059 1331 1503 
L 1331 0 
L 453 0 
L 453 3319 
L 1269 3319 
L 1269 2831 
Q 1703 3394 2363 3394 
Q 2653 3394 2893 3289 
Q 3134 3184 3257 3021 
Q 3381 2859 3429 2653 
Q 3478 2447 3478 2063 
L 3478 0 
z
" transform="scale(0.015625)"/>
       <path id="Arial-BoldMT-28" d="M 1916 -1347 
L 1313 -1347 
Q 834 -625 584 153 
Q 334 931 334 1659 
Q 334 2563 644 3369 
Q 913 4069 1325 4659 
L 1925 4659 
Q 1497 3713 1336 3048 
Q 1175 2384 1175 1641 
Q 1175 1128 1270 590 
Q 1366 53 1531 -431 
Q 1641 -750 1916 -1347 
z
" transform="scale(0.015625)"/>
       <path id="Arial-BoldMT-3bc" d="M 450 3319 
L 1328 3319 
L 1328 1809 
Q 1328 1388 1372 1150 
Q 1416 913 1570 766 
Q 1725 619 1941 619 
Q 2166 619 2330 772 
Q 2494 925 2541 1144 
Q 2588 1363 2588 1800 
L 2588 3319 
L 3466 3319 
L 3466 0 
L 2656 0 
L 2656 400 
Q 2409 -75 1988 -75 
Q 1538 -75 1328 400 
L 1328 -1263 
L 450 -1263 
L 450 3319 
z
" transform="scale(0.015625)"/>
       <path id="Arial-BoldMT-73" d="M 150 947 
L 1031 1081 
Q 1088 825 1259 692 
Q 1431 559 1741 559 
Q 2081 559 2253 684 
Q 2369 772 2369 919 
Q 2369 1019 2306 1084 
Q 2241 1147 2013 1200 
Q 950 1434 666 1628 
Q 272 1897 272 2375 
Q 272 2806 612 3100 
Q 953 3394 1669 3394 
Q 2350 3394 2681 3172 
Q 3013 2950 3138 2516 
L 2309 2363 
Q 2256 2556 2107 2659 
Q 1959 2763 1684 2763 
Q 1338 2763 1188 2666 
Q 1088 2597 1088 2488 
Q 1088 2394 1175 2328 
Q 1294 2241 1995 2081 
Q 2697 1922 2975 1691 
Q 3250 1456 3250 1038 
Q 3250 581 2869 253 
Q 2488 -75 1741 -75 
Q 1063 -75 667 200 
Q 272 475 150 947 
z
" transform="scale(0.015625)"/>
       <path id="Arial-BoldMT-29" d="M 216 -1347 
Q 475 -791 581 -494 
Q 688 -197 778 190 
Q 869 578 912 926 
Q 956 1275 956 1641 
Q 956 2384 797 3048 
Q 638 3713 209 4659 
L 806 4659 
Q 1278 3988 1539 3234 
Q 1800 2481 1800 1706 
Q 1800 1053 1594 306 
Q 1359 -531 822 -1347 
L 216 -1347 
z
" transform="scale(0.015625)"/>
      </defs>
      <use xlink:href="#Arial-BoldMT-54"/>
      <use xlink:href="#Arial-BoldMT-69" transform="translate(59.333984 0)"/>
      <use xlink:href="#Arial-BoldMT-6d" transform="translate(87.117188 0)"/>
      <use xlink:href="#Arial-BoldMT-65" transform="translate(176.033203 0)"/>
      <use xlink:href="#Arial-BoldMT-20" transform="translate(231.648438 0)"/>
      <use xlink:href="#Arial-BoldMT-70" transform="translate(259.431641 0)"/>
      <use xlink:href="#Arial-BoldMT-65" transform="translate(320.515625 0)"/>
      <use xlink:href="#Arial-BoldMT-72" transform="translate(376.130859 0)"/>
      <use xlink:href="#Arial-BoldMT-20" transform="translate(415.046875 0)"/>
      <use xlink:href="#Arial-BoldMT-61" transform="translate(442.830078 0)"/>
      <use xlink:href="#Arial-BoldMT-63" transform="translate(498.445312 0)"/>
      <use xlink:href="#Arial-BoldMT-74" transform="translate(554.060547 0)"/>
      <use xlink:href="#Arial-BoldMT-69" transform="translate(587.361328 0)"/>
      <use xlink:href="#Arial-BoldMT-6f" transform="translate(615.144531 0)"/>
      <use xlink:href="#Arial-BoldMT-6e" transform="translate(676.228516 0)"/>
      <use xlink:href="#Arial-BoldMT-20" transform="translate(737.3125 0)"/>
      <use xlink:href="#Arial-BoldMT-28" transform="translate(765.095703 0)"/>
      <use xlink:href="#Arial-BoldMT-3bc" transform="translate(798.396484 0)"/>
      <use xlink:href="#Arial-BoldMT-73" transform="translate(859.578125 0)"/>
      <use xlink:href="#Arial-BoldMT-29" transform="translate(915.193359 0)"/>
     </g>
    </g>
   </g>
   <g id="matplotlib.axis_2">
    <g id="ytick_1">
     <g id="line2d_5">
      <path d="M 63.27 404.997622 
L 623.16 404.997622 
" clip-path="url(#pbffca30507)" style="fill: none; stroke-dasharray: 3.7,1.6; stroke-dashoffset: 0; stroke: #cccccc"/>
     </g>
     <g id="text_6">
      <!-- 0% -->
      <g style="fill: #262626" transform="translate(37.871563 408.934419) scale(0.11 -0.11)">
       <defs>
        <path id="ArialMT-25" d="M 372 3481 
Q 372 3972 619 4315 
Q 866 4659 1334 4659 
Q 1766 4659 2048 4351 
Q 2331 4044 2331 3447 
Q 2331 2866 2045 2552 
Q 1759 2238 1341 2238 
Q 925 2238 648 2547 
Q 372 2856 372 3481 
z
M 1350 4272 
Q 1141 4272 1002 4090 
Q 863 3909 863 3425 
Q 863 2984 1003 2804 
Q 1144 2625 1350 2625 
Q 1563 2625 1702 2806 
Q 1841 2988 1841 3469 
Q 1841 3913 1700 4092 
Q 1559 4272 1350 4272 
z
M 1353 -169 
L 3859 4659 
L 4316 4659 
L 1819 -169 
L 1353 -169 
z
M 3334 1075 
Q 3334 1569 3581 1911 
Q 3828 2253 4300 2253 
Q 4731 2253 5014 1945 
Q 5297 1638 5297 1041 
Q 5297 459 5011 145 
Q 4725 -169 4303 -169 
Q 3888 -169 3611 142 
Q 3334 453 3334 1075 
z
M 4316 1866 
Q 4103 1866 3964 1684 
Q 3825 1503 3825 1019 
Q 3825 581 3965 400 
Q 4106 219 4313 219 
Q 4528 219 4667 400 
Q 4806 581 4806 1063 
Q 4806 1506 4665 1686 
Q 4525 1866 4316 1866 
z
" transform="scale(0.015625)"/>
       </defs>
       <use xlink:href="#ArialMT-30"/>
       <use xlink:href="#ArialMT-25" transform="translate(55.615234 0)"/>
      </g>
     </g>
    </g>
    <g id="ytick_2">
     <g id="line2d_6">
      <path d="M 63.27 329.912361 
L 623.16 329.912361 
" clip-path="url(#pbffca30507)" style="fill: none; stroke-dasharray: 3.7,1.6; stroke-dashoffset: 0; stroke: #cccccc"/>
     </g>
     <g id="text_7">
      <!-- 20% -->
      <g style="fill: #262626" transform="translate(31.754531 333.849158) scale(0.11 -0.11)">
       <use xlink:href="#ArialMT-32"/>
       <use xlink:href="#ArialMT-30" transform="translate(55.615234 0)"/>
       <use xlink:href="#ArialMT-25" transform="translate(111.230469 0)"/>
      </g>
     </g>
    </g>
    <g id="ytick_3">
     <g id="line2d_7">
      <path d="M 63.27 254.827099 
L 623.16 254.827099 
" clip-path="url(#pbffca30507)" style="fill: none; stroke-dasharray: 3.7,1.6; stroke-dashoffset: 0; stroke: #cccccc"/>
     </g>
     <g id="text_8">
      <!-- 40% -->
      <g style="fill: #262626" transform="translate(31.754531 258.763896) scale(0.11 -0.11)">
       <use xlink:href="#ArialMT-34"/>
       <use xlink:href="#ArialMT-30" transform="translate(55.615234 0)"/>
       <use xlink:href="#ArialMT-25" transform="translate(111.230469 0)"/>
      </g>
     </g>
    </g>
    <g id="ytick_4">
     <g id="line2d_8">
      <path d="M 63.27 179.741838 
L 623.16 179.741838 
" clip-path="url(#pbffca30507)" style="fill: none; stroke-dasharray: 3.7,1.6; stroke-dashoffset: 0; stroke: #cccccc"/>
     </g>
     <g id="text_9">
      <!-- 60% -->
      <g style="fill: #262626" transform="translate(31.754531 183.678635) scale(0.11 -0.11)">
       <defs>
        <path id="ArialMT-36" d="M 3184 3459 
L 2625 3416 
Q 2550 3747 2413 3897 
Q 2184 4138 1850 4138 
Q 1581 4138 1378 3988 
Q 1113 3794 959 3422 
Q 806 3050 800 2363 
Q 1003 2672 1297 2822 
Q 1591 2972 1913 2972 
Q 2475 2972 2870 2558 
Q 3266 2144 3266 1488 
Q 3266 1056 3080 686 
Q 2894 316 2569 119 
Q 2244 -78 1831 -78 
Q 1128 -78 684 439 
Q 241 956 241 2144 
Q 241 3472 731 4075 
Q 1159 4600 1884 4600 
Q 2425 4600 2770 4297 
Q 3116 3994 3184 3459 
z
M 888 1484 
Q 888 1194 1011 928 
Q 1134 663 1356 523 
Q 1578 384 1822 384 
Q 2178 384 2434 671 
Q 2691 959 2691 1453 
Q 2691 1928 2437 2201 
Q 2184 2475 1800 2475 
Q 1419 2475 1153 2201 
Q 888 1928 888 1484 
z
" transform="scale(0.015625)"/>
       </defs>
       <use xlink:href="#ArialMT-36"/>
       <use xlink:href="#ArialMT-30" transform="translate(55.615234 0)"/>
       <use xlink:href="#ArialMT-25" transform="translate(111.230469 0)"/>
      </g>
     </g>
    </g>
    <g id="ytick_5">
     <g id="line2d_9">
      <path d="M 63.27 104.656577 
L 623.16 104.656577 
" clip-path="url(#pbffca30507)" style="fill: none; stroke-dasharray: 3.7,1.6; stroke-dashoffset: 0; stroke: #cccccc"/>
     </g>
     <g id="text_10">
      <!-- 80% -->
      <g style="fill: #262626" transform="translate(31.754531 108.593374) scale(0.11 -0.11)">
       <defs>
        <path id="ArialMT-38" d="M 1131 2484 
Q 781 2613 612 2850 
Q 444 3088 444 3419 
Q 444 3919 803 4259 
Q 1163 4600 1759 4600 
Q 2359 4600 2725 4251 
Q 3091 3903 3091 3403 
Q 3091 3084 2923 2848 
Q 2756 2613 2416 2484 
Q 2838 2347 3058 2040 
Q 3278 1734 3278 1309 
Q 3278 722 2862 322 
Q 2447 -78 1769 -78 
Q 1091 -78 675 323 
Q 259 725 259 1325 
Q 259 1772 486 2073 
Q 713 2375 1131 2484 
z
M 1019 3438 
Q 1019 3113 1228 2906 
Q 1438 2700 1772 2700 
Q 2097 2700 2305 2904 
Q 2513 3109 2513 3406 
Q 2513 3716 2298 3927 
Q 2084 4138 1766 4138 
Q 1444 4138 1231 3931 
Q 1019 3725 1019 3438 
z
M 838 1322 
Q 838 1081 952 856 
Q 1066 631 1291 507 
Q 1516 384 1775 384 
Q 2178 384 2440 643 
Q 2703 903 2703 1303 
Q 2703 1709 2433 1975 
Q 2163 2241 1756 2241 
Q 1359 2241 1098 1978 
Q 838 1716 838 1322 
z
" transform="scale(0.015625)"/>
       </defs>
       <use xlink:href="#ArialMT-38"/>
       <use xlink:href="#ArialMT-30" transform="translate(55.615234 0)"/>
       <use xlink:href="#ArialMT-25" transform="translate(111.230469 0)"/>
      </g>
     </g>
    </g>
    <g id="ytick_6">
     <g id="line2d_10">
      <path d="M 63.27 29.571315 
L 623.16 29.571315 
" clip-path="url(#pbffca30507)" style="fill: none; stroke-dasharray: 3.7,1.6; stroke-dashoffset: 0; stroke: #cccccc"/>
     </g>
     <g id="text_11">
      <!-- 100% -->
      <g style="fill: #262626" transform="translate(25.6375 33.508112) scale(0.11 -0.11)">
       <use xlink:href="#ArialMT-31"/>
       <use xlink:href="#ArialMT-30" transform="translate(55.615234 0)"/>
       <use xlink:href="#ArialMT-30" transform="translate(111.230469 0)"/>
       <use xlink:href="#ArialMT-25" transform="translate(166.845703 0)"/>
      </g>
     </g>
    </g>
    <g id="text_12">
     <!-- Solve Rate -->
     <g style="fill: #262626" transform="translate(19.269375 247.962281) rotate(-90) scale(0.12 -0.12)">
      <defs>
       <path id="Arial-BoldMT-53" d="M 231 1491 
L 1131 1578 
Q 1213 1125 1461 912 
Q 1709 700 2131 700 
Q 2578 700 2804 889 
Q 3031 1078 3031 1331 
Q 3031 1494 2936 1608 
Q 2841 1722 2603 1806 
Q 2441 1863 1863 2006 
Q 1119 2191 819 2459 
Q 397 2838 397 3381 
Q 397 3731 595 4036 
Q 794 4341 1167 4500 
Q 1541 4659 2069 4659 
Q 2931 4659 3367 4281 
Q 3803 3903 3825 3272 
L 2900 3231 
Q 2841 3584 2645 3739 
Q 2450 3894 2059 3894 
Q 1656 3894 1428 3728 
Q 1281 3622 1281 3444 
Q 1281 3281 1419 3166 
Q 1594 3019 2269 2859 
Q 2944 2700 3267 2529 
Q 3591 2359 3773 2064 
Q 3956 1769 3956 1334 
Q 3956 941 3737 597 
Q 3519 253 3119 86 
Q 2719 -81 2122 -81 
Q 1253 -81 787 320 
Q 322 722 231 1491 
z
" transform="scale(0.015625)"/>
       <path id="Arial-BoldMT-6c" d="M 459 0 
L 459 4581 
L 1338 4581 
L 1338 0 
L 459 0 
z
" transform="scale(0.015625)"/>
       <path id="Arial-BoldMT-76" d="M 1372 0 
L 34 3319 
L 956 3319 
L 1581 1625 
L 1763 1059 
Q 1834 1275 1853 1344 
Q 1897 1484 1947 1625 
L 2578 3319 
L 3481 3319 
L 2163 0 
L 1372 0 
z
" transform="scale(0.015625)"/>
       <path id="Arial-BoldMT-52" d="M 469 0 
L 469 4581 
L 2416 4581 
Q 3150 4581 3483 4457 
Q 3816 4334 4016 4018 
Q 4216 3703 4216 3297 
Q 4216 2781 3912 2445 
Q 3609 2109 3006 2022 
Q 3306 1847 3501 1637 
Q 3697 1428 4028 894 
L 4588 0 
L 3481 0 
L 2813 997 
Q 2456 1531 2325 1670 
Q 2194 1809 2047 1861 
Q 1900 1913 1581 1913 
L 1394 1913 
L 1394 0 
L 469 0 
z
M 1394 2644 
L 2078 2644 
Q 2744 2644 2909 2700 
Q 3075 2756 3169 2893 
Q 3263 3031 3263 3238 
Q 3263 3469 3139 3611 
Q 3016 3753 2791 3791 
Q 2678 3806 2116 3806 
L 1394 3806 
L 1394 2644 
z
" transform="scale(0.015625)"/>
      </defs>
      <use xlink:href="#Arial-BoldMT-53"/>
      <use xlink:href="#Arial-BoldMT-6f" transform="translate(66.699219 0)"/>
      <use xlink:href="#Arial-BoldMT-6c" transform="translate(127.783203 0)"/>
      <use xlink:href="#Arial-BoldMT-76" transform="translate(155.566406 0)"/>
      <use xlink:href="#Arial-BoldMT-65" transform="translate(211.181641 0)"/>
      <use xlink:href="#Arial-BoldMT-20" transform="translate(266.796875 0)"/>
      <use xlink:href="#Arial-BoldMT-52" transform="translate(294.580078 0)"/>
      <use xlink:href="#Arial-BoldMT-61" transform="translate(366.796875 0)"/>
      <use xlink:href="#Arial-BoldMT-74" transform="translate(422.412109 0)"/>
      <use xlink:href="#Arial-BoldMT-65" transform="translate(455.712891 0)"/>
     </g>
    </g>
   </g>
   <g id="PathCollection_1">
    <defs>
     <path id="C0_0_fc9982e932" d="M 0 7.071068 
C 1.875269 7.071068 3.673985 6.326016 5 5 
C 6.326016 3.673985 7.071068 1.875269 7.071068 -0 
C 7.071068 -1.875269 6.326016 -3.673985 5 -5 
C 3.673985 -6.326016 1.875269 -7.071068 0 -7.071068 
C -1.875269 -7.071068 -3.673985 -6.326016 -5 -5 
C -6.326016 -3.673985 -7.071068 -1.875269 -7.071068 0 
C -7.071068 1.875269 -6.326016 3.673985 -5 5 
C -3.673985 6.326016 -1.875269 7.071068 0 7.071068 
z
"/>
    </defs>
    <g clip-path="url(#pbffca30507)">
     <use xlink:href="#C0_0_fc9982e932" x="76.476263" y="157.116146" style="fill: #4c72b0; stroke: #ffffff; stroke-width: 1.131371"/>
    </g>
    <g clip-path="url(#pbffca30507)">
     <use xlink:href="#C0_0_fc9982e932" x="612.369697" y="157.84197" style="fill: #8172b3; stroke: #ffffff; stroke-width: 1.131371"/>
    </g>
    <g clip-path="url(#pbffca30507)">
     <use xlink:href="#C0_0_fc9982e932" x="111.231398" y="158.64288" style="fill: #c44e52; stroke: #ffffff; stroke-width: 1.131371"/>
    </g>
    <g clip-path="url(#pbffca30507)">
     <use xlink:href="#C0_0_fc9982e932" x="239.839339" y="179.904523" style="fill: #937860; stroke: #ffffff; stroke-width: 1.131371"/>
    </g>
    <g clip-path="url(#pbffca30507)">
     <use xlink:href="#C0_0_fc9982e932" x="401.106473" y="213.78049" style="fill: #55a868; stroke: #ffffff; stroke-width: 1.131371"/>
    </g>
   </g>
   <g id="line2d_11">
    <path d="M 63.27 173.457202 
L 623.16 173.457202 
" clip-path="url(#pbffca30507)" style="fill: none; stroke-dasharray: 5.55,2.4; stroke-dashoffset: 0; stroke: #808080; stroke-opacity: 0.5; stroke-width: 1.5"/>
   </g>
   <g id="line2d_12">
    <path d="M 288.204634 423.768937 
L 288.204634 10.8 
" clip-path="url(#pbffca30507)" style="fill: none; stroke-dasharray: 5.55,2.4; stroke-dashoffset: 0; stroke: #808080; stroke-opacity: 0.5; stroke-width: 1.5"/>
   </g>
   <g id="patch_7">
    <path d="M 63.27 423.768937 
L 63.27 10.8 
" style="fill: none; stroke: #cccccc; stroke-width: 1.25; stroke-linejoin: miter; stroke-linecap: square"/>
   </g>
   <g id="patch_8">
    <path d="M 63.27 423.768937 
L 623.16 423.768937 
" style="fill: none; stroke: #cccccc; stroke-width: 1.25; stroke-linejoin: miter; stroke-linecap: square"/>
   </g>
   <g id="patch_9">
    <path d="M 81.110174 173.115138 
Q 79.627572 167.99632 78.45601 163.951398 
" style="fill: none; opacity: 0.7; stroke: #808080; stroke-linecap: round"/>
    <path d="M 77.728602 167.910044 
L 78.45601 163.951398 
L 81.186482 166.908512 
" style="fill: none; opacity: 0.7; stroke: #808080; stroke-linecap: round"/>
   </g>
   <g id="text_13">
    <g id="patch_10">
     <path d="M 68.720482 189.052396 
L 98.232044 189.052396 
Q 101.832044 189.052396 101.832044 185.452396 
L 101.832044 177.116146 
Q 101.832044 173.516146 98.232044 173.516146 
L 68.720482 173.516146 
Q 65.120482 173.516146 65.120482 177.116146 
L 65.120482 185.452396 
Q 65.120482 189.052396 68.720482 189.052396 
z
" style="fill: #ffffff; opacity: 0.85; stroke: #808080; stroke-width: 0.8; stroke-linejoin: miter"/>
    </g>
    <!-- greedy -->
    <g style="fill: #262626" transform="translate(68.720482 183.558177) scale(0.09 -0.09)">
     <defs>
      <path id="Arial-BoldMT-67" d="M 378 -219 
L 1381 -341 
Q 1406 -516 1497 -581 
Q 1622 -675 1891 -675 
Q 2234 -675 2406 -572 
Q 2522 -503 2581 -350 
Q 2622 -241 2622 53 
L 2622 538 
Q 2228 0 1628 0 
Q 959 0 569 566 
Q 263 1013 263 1678 
Q 263 2513 664 2953 
Q 1066 3394 1663 3394 
Q 2278 3394 2678 2853 
L 2678 3319 
L 3500 3319 
L 3500 341 
Q 3500 -247 3403 -537 
Q 3306 -828 3131 -993 
Q 2956 -1159 2664 -1253 
Q 2372 -1347 1925 -1347 
Q 1081 -1347 728 -1058 
Q 375 -769 375 -325 
Q 375 -281 378 -219 
z
M 1163 1728 
Q 1163 1200 1367 954 
Q 1572 709 1872 709 
Q 2194 709 2416 961 
Q 2638 1213 2638 1706 
Q 2638 2222 2425 2472 
Q 2213 2722 1888 2722 
Q 1572 2722 1367 2476 
Q 1163 2231 1163 1728 
z
" transform="scale(0.015625)"/>
      <path id="Arial-BoldMT-64" d="M 3503 0 
L 2688 0 
L 2688 488 
Q 2484 203 2207 64 
Q 1931 -75 1650 -75 
Q 1078 -75 670 386 
Q 263 847 263 1672 
Q 263 2516 659 2955 
Q 1056 3394 1663 3394 
Q 2219 3394 2625 2931 
L 2625 4581 
L 3503 4581 
L 3503 0 
z
M 1159 1731 
Q 1159 1200 1306 963 
Q 1519 619 1900 619 
Q 2203 619 2415 876 
Q 2628 1134 2628 1647 
Q 2628 2219 2422 2470 
Q 2216 2722 1894 2722 
Q 1581 2722 1370 2473 
Q 1159 2225 1159 1731 
z
" transform="scale(0.015625)"/>
      <path id="Arial-BoldMT-79" d="M 44 3319 
L 978 3319 
L 1772 963 
L 2547 3319 
L 3456 3319 
L 2284 125 
L 2075 -453 
Q 1959 -744 1854 -897 
Q 1750 -1050 1614 -1145 
Q 1478 -1241 1279 -1294 
Q 1081 -1347 831 -1347 
Q 578 -1347 334 -1294 
L 256 -606 
Q 463 -647 628 -647 
Q 934 -647 1081 -467 
Q 1228 -288 1306 -9 
L 44 3319 
z
" transform="scale(0.015625)"/>
     </defs>
     <use xlink:href="#Arial-BoldMT-67"/>
     <use xlink:href="#Arial-BoldMT-72" transform="translate(61.083984 0)"/>
     <use xlink:href="#Arial-BoldMT-65" transform="translate(100 0)"/>
     <use xlink:href="#Arial-BoldMT-65" transform="translate(155.615234 0)"/>
     <use xlink:href="#Arial-BoldMT-64" transform="translate(211.230469 0)"/>
     <use xlink:href="#Arial-BoldMT-79" transform="translate(272.314453 0)"/>
    </g>
   </g>
   <g id="patch_11">
    <path d="M 597.407571 168.840411 
Q 602.472265 165.117428 606.636125 162.056636 
" style="fill: none; opacity: 0.7; stroke: #808080; stroke-linecap: round"/>
    <path d="M 602.669386 162.738532 
L 606.636125 162.056636 
L 604.801599 165.639165 
" style="fill: none; opacity: 0.7; stroke: #808080; stroke-linecap: round"/>
   </g>
   <g id="text_14">
    <g id="patch_12">
     <path d="M 572.378291 184.660095 
L 600.369697 184.660095 
Q 603.969697 184.660095 603.969697 181.060095 
L 603.969697 172.84197 
Q 603.969697 169.24197 600.369697 169.24197 
L 572.378291 169.24197 
Q 568.778291 169.24197 568.778291 172.84197 
L 568.778291 181.060095 
Q 568.778291 184.660095 572.378291 184.660095 
z
" style="fill: #ffffff; opacity: 0.85; stroke: #808080; stroke-width: 0.8; stroke-linejoin: miter"/>
    </g>
    <!-- rollout -->
    <g style="fill: #262626" transform="translate(572.378291 179.284001) scale(0.09 -0.09)">
     <defs>
      <path id="Arial-BoldMT-75" d="M 2644 0 
L 2644 497 
Q 2463 231 2167 78 
Q 1872 -75 1544 -75 
Q 1209 -75 943 72 
Q 678 219 559 484 
Q 441 750 441 1219 
L 441 3319 
L 1319 3319 
L 1319 1794 
Q 1319 1094 1367 936 
Q 1416 778 1544 686 
Q 1672 594 1869 594 
Q 2094 594 2272 717 
Q 2450 841 2515 1023 
Q 2581 1206 2581 1919 
L 2581 3319 
L 3459 3319 
L 3459 0 
L 2644 0 
z
" transform="scale(0.015625)"/>
     </defs>
     <use xlink:href="#Arial-BoldMT-72"/>
     <use xlink:href="#Arial-BoldMT-6f" transform="translate(38.916016 0)"/>
     <use xlink:href="#Arial-BoldMT-6c" transform="translate(100 0)"/>
     <use xlink:href="#Arial-BoldMT-6c" transform="translate(127.783203 0)"/>
     <use xlink:href="#Arial-BoldMT-6f" transform="translate(155.566406 0)"/>
     <use xlink:href="#Arial-BoldMT-75" transform="translate(216.650391 0)"/>
     <use xlink:href="#Arial-BoldMT-74" transform="translate(277.734375 0)"/>
    </g>
   </g>
   <g id="patch_13">
    <path d="M 127.229362 158.64288 
Q 122.231951 158.64288 118.352574 158.64288 
" style="fill: none; opacity: 0.7; stroke: #808080; stroke-linecap: round"/>
    <path d="M 121.952574 160.44288 
L 118.352574 158.64288 
L 121.952574 156.84288 
" style="fill: none; opacity: 0.7; stroke: #808080; stroke-linecap: round"/>
   </g>
   <g id="text_15">
    <g id="patch_14">
     <path d="M 131.231398 166.411005 
L 210.780148 166.411005 
Q 214.380148 166.411005 214.380148 162.811005 
L 214.380148 154.474755 
Q 214.380148 150.874755 210.780148 150.874755 
L 131.231398 150.874755 
Q 127.631398 150.874755 127.631398 154.474755 
L 127.631398 162.811005 
Q 127.631398 166.411005 131.231398 166.411005 
z
" style="fill: #ffffff; opacity: 0.85; stroke: #808080; stroke-width: 0.8; stroke-linejoin: miter"/>
    </g>
    <!-- risk-averse greedy -->
    <g style="fill: #262626" transform="translate(131.231398 160.916786) scale(0.09 -0.09)">
     <defs>
      <path id="Arial-BoldMT-6b" d="M 428 0 
L 428 4581 
L 1306 4581 
L 1306 2150 
L 2334 3319 
L 3416 3319 
L 2281 2106 
L 3497 0 
L 2550 0 
L 1716 1491 
L 1306 1063 
L 1306 0 
L 428 0 
z
" transform="scale(0.015625)"/>
      <path id="Arial-BoldMT-2d" d="M 359 1222 
L 359 2100 
L 2084 2100 
L 2084 1222 
L 359 1222 
z
" transform="scale(0.015625)"/>
     </defs>
     <use xlink:href="#Arial-BoldMT-72"/>
     <use xlink:href="#Arial-BoldMT-69" transform="translate(38.916016 0)"/>
     <use xlink:href="#Arial-BoldMT-73" transform="translate(66.699219 0)"/>
     <use xlink:href="#Arial-BoldMT-6b" transform="translate(122.314453 0)"/>
     <use xlink:href="#Arial-BoldMT-2d" transform="translate(177.929688 0)"/>
     <use xlink:href="#Arial-BoldMT-61" transform="translate(211.230469 0)"/>
     <use xlink:href="#Arial-BoldMT-76" transform="translate(266.845703 0)"/>
     <use xlink:href="#Arial-BoldMT-65" transform="translate(322.460938 0)"/>
     <use xlink:href="#Arial-BoldMT-72" transform="translate(378.076172 0)"/>
     <use xlink:href="#Arial-BoldMT-73" transform="translate(416.992188 0)"/>
     <use xlink:href="#Arial-BoldMT-65" transform="translate(472.607422 0)"/>
     <use xlink:href="#Arial-BoldMT-20" transform="translate(528.222656 0)"/>
     <use xlink:href="#Arial-BoldMT-67" transform="translate(556.005859 0)"/>
     <use xlink:href="#Arial-BoldMT-72" transform="translate(617.089844 0)"/>
     <use xlink:href="#Arial-BoldMT-65" transform="translate(656.005859 0)"/>
     <use xlink:href="#Arial-BoldMT-65" transform="translate(711.621094 0)"/>
     <use xlink:href="#Arial-BoldMT-64" transform="translate(767.236328 0)"/>
     <use xlink:href="#Arial-BoldMT-79" transform="translate(828.320312 0)"/>
    </g>
   </g>
   <g id="patch_15">
    <path d="M 263.49797 190.903671 
Q 254.387722 186.66822 246.291299 182.904107 
" style="fill: none; opacity: 0.7; stroke: #808080; stroke-linecap: round"/>
    <path d="M 248.796912 186.054012 
L 246.291299 182.904107 
L 250.314591 182.78956 
" style="fill: none; opacity: 0.7; stroke: #808080; stroke-linecap: round"/>
   </g>
   <g id="text_16">
    <g id="patch_16">
     <path d="M 251.839339 206.867492 
L 310.356214 206.867492 
Q 313.956214 206.867492 313.956214 203.267492 
L 313.956214 194.904523 
Q 313.956214 191.304523 310.356214 191.304523 
L 251.839339 191.304523 
Q 248.239339 191.304523 248.239339 194.904523 
L 248.239339 203.267492 
Q 248.239339 206.867492 251.839339 206.867492 
z
" style="fill: #ffffff; opacity: 0.85; stroke: #808080; stroke-width: 0.8; stroke-linejoin: miter"/>
    </g>
    <!-- 2-step greedy -->
    <g style="fill: #262626" transform="translate(251.839339 201.373273) scale(0.09 -0.09)">
     <defs>
      <path id="Arial-BoldMT-32" d="M 3238 816 
L 3238 0 
L 159 0 
Q 209 463 459 877 
Q 709 1291 1447 1975 
Q 2041 2528 2175 2725 
Q 2356 2997 2356 3263 
Q 2356 3556 2198 3714 
Q 2041 3872 1763 3872 
Q 1488 3872 1325 3706 
Q 1163 3541 1138 3156 
L 263 3244 
Q 341 3969 753 4284 
Q 1166 4600 1784 4600 
Q 2463 4600 2850 4234 
Q 3238 3869 3238 3325 
Q 3238 3016 3127 2736 
Q 3016 2456 2775 2150 
Q 2616 1947 2200 1565 
Q 1784 1184 1673 1059 
Q 1563 934 1494 816 
L 3238 816 
z
" transform="scale(0.015625)"/>
     </defs>
     <use xlink:href="#Arial-BoldMT-32"/>
     <use xlink:href="#Arial-BoldMT-2d" transform="translate(55.615234 0)"/>
     <use xlink:href="#Arial-BoldMT-73" transform="translate(88.916016 0)"/>
     <use xlink:href="#Arial-BoldMT-74" transform="translate(144.53125 0)"/>
     <use xlink:href="#Arial-BoldMT-65" transform="translate(177.832031 0)"/>
     <use xlink:href="#Arial-BoldMT-70" transform="translate(233.447266 0)"/>
     <use xlink:href="#Arial-BoldMT-20" transform="translate(294.53125 0)"/>
     <use xlink:href="#Arial-BoldMT-67" transform="translate(322.314453 0)"/>
     <use xlink:href="#Arial-BoldMT-72" transform="translate(383.398438 0)"/>
     <use xlink:href="#Arial-BoldMT-65" transform="translate(422.314453 0)"/>
     <use xlink:href="#Arial-BoldMT-65" transform="translate(477.929688 0)"/>
     <use xlink:href="#Arial-BoldMT-64" transform="translate(533.544922 0)"/>
     <use xlink:href="#Arial-BoldMT-79" transform="translate(594.628906 0)"/>
    </g>
   </g>
   <g id="patch_17">
    <path d="M 381.683556 221.780672 
Q 388.622175 218.922697 394.52702 216.490527 
" style="fill: none; opacity: 0.7; stroke: #808080; stroke-linecap: round"/>
    <path d="M 390.512796 216.197249 
L 394.52702 216.490527 
L 391.883864 219.525939 
" style="fill: none; opacity: 0.7; stroke: #808080; stroke-linecap: round"/>
   </g>
   <g id="text_17">
    <g id="patch_18">
     <path d="M 334.600223 237.71674 
L 389.106473 237.71674 
Q 392.706473 237.71674 392.706473 234.11674 
L 392.706473 225.78049 
Q 392.706473 222.18049 389.106473 222.18049 
L 334.600223 222.18049 
Q 331.000223 222.18049 331.000223 225.78049 
L 331.000223 234.11674 
Q 331.000223 237.71674 334.600223 237.71674 
z
" style="fill: #ffffff; opacity: 0.85; stroke: #808080; stroke-width: 0.8; stroke-linejoin: miter"/>
    </g>
    <!-- prob. greedy -->
    <g style="fill: #262626" transform="translate(334.600223 232.222521) scale(0.09 -0.09)">
     <defs>
      <path id="Arial-BoldMT-62" d="M 422 0 
L 422 4581 
L 1300 4581 
L 1300 2931 
Q 1706 3394 2263 3394 
Q 2869 3394 3266 2955 
Q 3663 2516 3663 1694 
Q 3663 844 3258 384 
Q 2853 -75 2275 -75 
Q 1991 -75 1714 67 
Q 1438 209 1238 488 
L 1238 0 
L 422 0 
z
M 1294 1731 
Q 1294 1216 1456 969 
Q 1684 619 2063 619 
Q 2353 619 2558 867 
Q 2763 1116 2763 1650 
Q 2763 2219 2556 2470 
Q 2350 2722 2028 2722 
Q 1713 2722 1503 2476 
Q 1294 2231 1294 1731 
z
" transform="scale(0.015625)"/>
      <path id="Arial-BoldMT-2e" d="M 459 0 
L 459 878 
L 1338 878 
L 1338 0 
L 459 0 
z
" transform="scale(0.015625)"/>
     </defs>
     <use xlink:href="#Arial-BoldMT-70"/>
     <use xlink:href="#Arial-BoldMT-72" transform="translate(61.083984 0)"/>
     <use xlink:href="#Arial-BoldMT-6f" transform="translate(100 0)"/>
     <use xlink:href="#Arial-BoldMT-62" transform="translate(161.083984 0)"/>
     <use xlink:href="#Arial-BoldMT-2e" transform="translate(222.167969 0)"/>
     <use xlink:href="#Arial-BoldMT-20" transform="translate(249.951172 0)"/>
     <use xlink:href="#Arial-BoldMT-67" transform="translate(277.734375 0)"/>
     <use xlink:href="#Arial-BoldMT-72" transform="translate(338.818359 0)"/>
     <use xlink:href="#Arial-BoldMT-65" transform="translate(377.734375 0)"/>
     <use xlink:href="#Arial-BoldMT-65" transform="translate(433.349609 0)"/>
     <use xlink:href="#Arial-BoldMT-64" transform="translate(488.964844 0)"/>
     <use xlink:href="#Arial-BoldMT-79" transform="translate(550.048828 0)"/>
    </g>
   </g>
  </g>
 </g>
 <defs>
  <clipPath id="pbffca30507">
   <rect x="63.27" y="10.8" width="559.89" height="412.968937"/>
  </clipPath>
 </defs>
</svg>
